ISO-10303-21;
HEADER;
/* Generated by software containing ST-Developer
 * from STEP Tools, Inc. (www.steptools.com) 
 */

FILE_DESCRIPTION(
/* description */ (''),
/* implementation_level */ '2;1');

FILE_NAME(
/* name */ '9f2c298f-b6dc-4137-a1c1-c1a816b1832c.stp',
/* time_stamp */ '2026-03-08T18:30:43Z',
/* author */ (''),
/* organization */ (''),
/* preprocessor_version */ 'ST-DEVELOPER v20.1',
/* originating_system */ 'Autodesk Translation Framework v14.24.0.0',
/* authorisation */ '');

FILE_SCHEMA (('AUTOMOTIVE_DESIGN { 1 0 10303 214 3 1 1 }'));
ENDSEC;

DATA;
#10=MECHANICAL_DESIGN_GEOMETRIC_PRESENTATION_REPRESENTATION('',(#13),#1797);
#11=SHAPE_REPRESENTATION_RELATIONSHIP('SRR','None',#1804,#12);
#12=ADVANCED_BREP_SHAPE_REPRESENTATION('',(#14),#1796);
#13=STYLED_ITEM('',(#1813),#14);
#14=MANIFOLD_SOLID_BREP('Body1',#1006);
#15=SPHERICAL_SURFACE('',#1129,0.5);
#16=SPHERICAL_SURFACE('',#1133,0.5);
#17=SPHERICAL_SURFACE('',#1137,0.5);
#18=SPHERICAL_SURFACE('',#1142,0.5);
#19=CYLINDRICAL_SURFACE('',#1040,1.45);
#20=CYLINDRICAL_SURFACE('',#1045,1.95);
#21=CYLINDRICAL_SURFACE('',#1061,1.45);
#22=CYLINDRICAL_SURFACE('',#1066,1.95);
#23=CYLINDRICAL_SURFACE('',#1075,1.95);
#24=CYLINDRICAL_SURFACE('',#1084,1.45);
#25=CYLINDRICAL_SURFACE('',#1090,1.45);
#26=CYLINDRICAL_SURFACE('',#1092,1.45);
#27=CYLINDRICAL_SURFACE('',#1094,1.45);
#28=CYLINDRICAL_SURFACE('',#1096,1.45);
#29=CYLINDRICAL_SURFACE('',#1103,0.5);
#30=CYLINDRICAL_SURFACE('',#1109,0.5);
#31=CYLINDRICAL_SURFACE('',#1110,0.5);
#32=CYLINDRICAL_SURFACE('',#1116,0.5);
#33=CYLINDRICAL_SURFACE('',#1122,0.5);
#34=CYLINDRICAL_SURFACE('',#1123,0.5);
#35=CYLINDRICAL_SURFACE('',#1124,0.5);
#36=CYLINDRICAL_SURFACE('',#1125,0.5);
#37=CYLINDRICAL_SURFACE('',#1141,0.5);
#38=CYLINDRICAL_SURFACE('',#1146,0.5);
#39=CYLINDRICAL_SURFACE('',#1147,0.5);
#40=CYLINDRICAL_SURFACE('',#1148,0.5);
#41=CYLINDRICAL_SURFACE('',#1149,0.5);
#42=CYLINDRICAL_SURFACE('',#1150,0.5);
#43=CYLINDRICAL_SURFACE('',#1151,0.5);
#44=CYLINDRICAL_SURFACE('',#1152,0.5);
#45=TOROIDAL_SURFACE('',#1033,1.54,0.09);
#46=TOROIDAL_SURFACE('',#1042,1.86,0.09);
#47=TOROIDAL_SURFACE('',#1048,2.04,0.09);
#48=TOROIDAL_SURFACE('',#1054,1.54,0.09);
#49=TOROIDAL_SURFACE('',#1063,1.86,0.09);
#50=TOROIDAL_SURFACE('',#1069,2.04,0.09);
#51=TOROIDAL_SURFACE('',#1071,2.04,0.09);
#52=TOROIDAL_SURFACE('',#1077,1.54,0.09);
#53=TOROIDAL_SURFACE('',#1086,1.86,0.09);
#54=TOROIDAL_SURFACE('',#1098,1.,0.5);
#55=TOROIDAL_SURFACE('',#1104,1.,0.500000000000007);
#56=TOROIDAL_SURFACE('',#1111,1.,0.500000000000003);
#57=TOROIDAL_SURFACE('',#1117,1.,0.5);
#58=FACE_BOUND('',#136,.T.);
#59=FACE_BOUND('',#137,.T.);
#60=FACE_BOUND('',#138,.T.);
#61=FACE_BOUND('',#139,.T.);
#62=FACE_BOUND('',#142,.T.);
#63=FACE_BOUND('',#148,.T.);
#64=FACE_BOUND('',#149,.T.);
#65=FACE_BOUND('',#150,.T.);
#66=FACE_BOUND('',#153,.T.);
#67=FACE_BOUND('',#162,.T.);
#68=FACE_BOUND('',#201,.T.);
#69=FACE_BOUND('',#202,.T.);
#70=FACE_BOUND('',#203,.T.);
#71=FACE_BOUND('',#204,.T.);
#72=FACE_BOUND('',#205,.T.);
#73=FACE_BOUND('',#206,.T.);
#74=FACE_BOUND('',#207,.T.);
#75=FACE_OUTER_BOUND('',#135,.T.);
#76=FACE_OUTER_BOUND('',#140,.T.);
#77=FACE_OUTER_BOUND('',#141,.T.);
#78=FACE_OUTER_BOUND('',#143,.T.);
#79=FACE_OUTER_BOUND('',#144,.T.);
#80=FACE_OUTER_BOUND('',#145,.T.);
#81=FACE_OUTER_BOUND('',#146,.T.);
#82=FACE_OUTER_BOUND('',#147,.T.);
#83=FACE_OUTER_BOUND('',#151,.T.);
#84=FACE_OUTER_BOUND('',#152,.T.);
#85=FACE_OUTER_BOUND('',#154,.T.);
#86=FACE_OUTER_BOUND('',#155,.T.);
#87=FACE_OUTER_BOUND('',#156,.T.);
#88=FACE_OUTER_BOUND('',#157,.T.);
#89=FACE_OUTER_BOUND('',#158,.T.);
#90=FACE_OUTER_BOUND('',#159,.T.);
#91=FACE_OUTER_BOUND('',#160,.T.);
#92=FACE_OUTER_BOUND('',#161,.T.);
#93=FACE_OUTER_BOUND('',#163,.T.);
#94=FACE_OUTER_BOUND('',#164,.T.);
#95=FACE_OUTER_BOUND('',#165,.T.);
#96=FACE_OUTER_BOUND('',#166,.T.);
#97=FACE_OUTER_BOUND('',#167,.T.);
#98=FACE_OUTER_BOUND('',#168,.T.);
#99=FACE_OUTER_BOUND('',#169,.T.);
#100=FACE_OUTER_BOUND('',#170,.T.);
#101=FACE_OUTER_BOUND('',#171,.T.);
#102=FACE_OUTER_BOUND('',#172,.T.);
#103=FACE_OUTER_BOUND('',#173,.T.);
#104=FACE_OUTER_BOUND('',#174,.T.);
#105=FACE_OUTER_BOUND('',#175,.T.);
#106=FACE_OUTER_BOUND('',#176,.T.);
#107=FACE_OUTER_BOUND('',#177,.T.);
#108=FACE_OUTER_BOUND('',#178,.T.);
#109=FACE_OUTER_BOUND('',#179,.T.);
#110=FACE_OUTER_BOUND('',#180,.T.);
#111=FACE_OUTER_BOUND('',#181,.T.);
#112=FACE_OUTER_BOUND('',#182,.T.);
#113=FACE_OUTER_BOUND('',#183,.T.);
#114=FACE_OUTER_BOUND('',#184,.T.);
#115=FACE_OUTER_BOUND('',#185,.T.);
#116=FACE_OUTER_BOUND('',#186,.T.);
#117=FACE_OUTER_BOUND('',#187,.T.);
#118=FACE_OUTER_BOUND('',#188,.T.);
#119=FACE_OUTER_BOUND('',#189,.T.);
#120=FACE_OUTER_BOUND('',#190,.T.);
#121=FACE_OUTER_BOUND('',#191,.T.);
#122=FACE_OUTER_BOUND('',#192,.T.);
#123=FACE_OUTER_BOUND('',#193,.T.);
#124=FACE_OUTER_BOUND('',#194,.T.);
#125=FACE_OUTER_BOUND('',#195,.T.);
#126=FACE_OUTER_BOUND('',#196,.T.);
#127=FACE_OUTER_BOUND('',#197,.T.);
#128=FACE_OUTER_BOUND('',#198,.T.);
#129=FACE_OUTER_BOUND('',#199,.T.);
#130=FACE_OUTER_BOUND('',#200,.T.);
#131=FACE_OUTER_BOUND('',#208,.T.);
#132=FACE_OUTER_BOUND('',#209,.T.);
#133=FACE_OUTER_BOUND('',#210,.T.);
#134=FACE_OUTER_BOUND('',#211,.T.);
#135=EDGE_LOOP('',(#645,#646,#647,#648,#649,#650,#651,#652,#653,#654,#655,
#656,#657,#658,#659,#660,#661,#662,#663,#664));
#136=EDGE_LOOP('',(#665));
#137=EDGE_LOOP('',(#666));
#138=EDGE_LOOP('',(#667));
#139=EDGE_LOOP('',(#668));
#140=EDGE_LOOP('',(#669,#670,#671,#672,#673));
#141=EDGE_LOOP('',(#674));
#142=EDGE_LOOP('',(#675));
#143=EDGE_LOOP('',(#676,#677,#678,#679,#680));
#144=EDGE_LOOP('',(#681,#682,#683,#684));
#145=EDGE_LOOP('',(#685,#686,#687,#688,#689));
#146=EDGE_LOOP('',(#690,#691,#692,#693,#694));
#147=EDGE_LOOP('',(#695,#696,#697,#698));
#148=EDGE_LOOP('',(#699));
#149=EDGE_LOOP('',(#700));
#150=EDGE_LOOP('',(#701));
#151=EDGE_LOOP('',(#702,#703,#704,#705,#706));
#152=EDGE_LOOP('',(#707));
#153=EDGE_LOOP('',(#708));
#154=EDGE_LOOP('',(#709,#710,#711,#712,#713));
#155=EDGE_LOOP('',(#714,#715,#716,#717));
#156=EDGE_LOOP('',(#718,#719,#720,#721,#722));
#157=EDGE_LOOP('',(#723,#724,#725,#726,#727));
#158=EDGE_LOOP('',(#728,#729,#730,#731,#732));
#159=EDGE_LOOP('',(#733,#734,#735,#736,#737));
#160=EDGE_LOOP('',(#738,#739,#740,#741,#742));
#161=EDGE_LOOP('',(#743));
#162=EDGE_LOOP('',(#744));
#163=EDGE_LOOP('',(#745,#746,#747,#748,#749));
#164=EDGE_LOOP('',(#750,#751,#752,#753));
#165=EDGE_LOOP('',(#754,#755,#756,#757));
#166=EDGE_LOOP('',(#758,#759,#760,#761));
#167=EDGE_LOOP('',(#762,#763,#764,#765));
#168=EDGE_LOOP('',(#766,#767,#768,#769));
#169=EDGE_LOOP('',(#770,#771,#772,#773));
#170=EDGE_LOOP('',(#774,#775,#776,#777));
#171=EDGE_LOOP('',(#778,#779,#780,#781));
#172=EDGE_LOOP('',(#782,#783,#784,#785));
#173=EDGE_LOOP('',(#786,#787,#788,#789));
#174=EDGE_LOOP('',(#790,#791,#792,#793));
#175=EDGE_LOOP('',(#794,#795,#796,#797));
#176=EDGE_LOOP('',(#798,#799,#800,#801));
#177=EDGE_LOOP('',(#802,#803,#804,#805));
#178=EDGE_LOOP('',(#806,#807,#808,#809));
#179=EDGE_LOOP('',(#810,#811,#812,#813));
#180=EDGE_LOOP('',(#814,#815,#816,#817));
#181=EDGE_LOOP('',(#818,#819,#820,#821));
#182=EDGE_LOOP('',(#822,#823,#824,#825));
#183=EDGE_LOOP('',(#826,#827,#828,#829));
#184=EDGE_LOOP('',(#830,#831,#832,#833,#834,#835,#836,#837,#838,#839));
#185=EDGE_LOOP('',(#840,#841,#842,#843));
#186=EDGE_LOOP('',(#844,#845,#846));
#187=EDGE_LOOP('',(#847,#848,#849));
#188=EDGE_LOOP('',(#850,#851,#852));
#189=EDGE_LOOP('',(#853,#854,#855,#856));
#190=EDGE_LOOP('',(#857,#858,#859));
#191=EDGE_LOOP('',(#860,#861,#862,#863));
#192=EDGE_LOOP('',(#864,#865,#866,#867));
#193=EDGE_LOOP('',(#868,#869,#870,#871));
#194=EDGE_LOOP('',(#872,#873,#874,#875));
#195=EDGE_LOOP('',(#876,#877,#878,#879));
#196=EDGE_LOOP('',(#880,#881,#882,#883));
#197=EDGE_LOOP('',(#884,#885,#886,#887));
#198=EDGE_LOOP('',(#888,#889,#890,#891));
#199=EDGE_LOOP('',(#892,#893,#894,#895));
#200=EDGE_LOOP('',(#896,#897,#898,#899));
#201=EDGE_LOOP('',(#900));
#202=EDGE_LOOP('',(#901));
#203=EDGE_LOOP('',(#902));
#204=EDGE_LOOP('',(#903));
#205=EDGE_LOOP('',(#904));
#206=EDGE_LOOP('',(#905));
#207=EDGE_LOOP('',(#906));
#208=EDGE_LOOP('',(#907,#908,#909,#910));
#209=EDGE_LOOP('',(#911,#912,#913,#914,#915,#916,#917,#918,#919,#920));
#210=EDGE_LOOP('',(#921,#922,#923,#924));
#211=EDGE_LOOP('',(#925,#926,#927,#928));
#212=LINE('',#1510,#274);
#213=LINE('',#1514,#275);
#214=LINE('',#1518,#276);
#215=LINE('',#1522,#277);
#216=LINE('',#1526,#278);
#217=LINE('',#1530,#279);
#218=LINE('',#1534,#280);
#219=LINE('',#1538,#281);
#220=LINE('',#1540,#282);
#221=LINE('',#1542,#283);
#222=LINE('',#1544,#284);
#223=LINE('',#1545,#285);
#224=LINE('',#1567,#286);
#225=LINE('',#1575,#287);
#226=LINE('',#1586,#288);
#227=LINE('',#1588,#289);
#228=LINE('',#1590,#290);
#229=LINE('',#1591,#291);
#230=LINE('',#1609,#292);
#231=LINE('',#1617,#293);
#232=LINE('',#1632,#294);
#233=LINE('',#1646,#295);
#234=LINE('',#1651,#296);
#235=LINE('',#1652,#297);
#236=LINE('',#1654,#298);
#237=LINE('',#1657,#299);
#238=LINE('',#1661,#300);
#239=LINE('',#1665,#301);
#240=LINE('',#1669,#302);
#241=LINE('',#1681,#303);
#242=LINE('',#1682,#304);
#243=LINE('',#1693,#305);
#244=LINE('',#1694,#306);
#245=LINE('',#1696,#307);
#246=LINE('',#1697,#308);
#247=LINE('',#1708,#309);
#248=LINE('',#1709,#310);
#249=LINE('',#1720,#311);
#250=LINE('',#1721,#312);
#251=LINE('',#1723,#313);
#252=LINE('',#1724,#314);
#253=LINE('',#1726,#315);
#254=LINE('',#1727,#316);
#255=LINE('',#1729,#317);
#256=LINE('',#1730,#318);
#257=LINE('',#1734,#319);
#258=LINE('',#1736,#320);
#259=LINE('',#1737,#321);
#260=LINE('',#1760,#322);
#261=LINE('',#1761,#323);
#262=LINE('',#1769,#324);
#263=LINE('',#1771,#325);
#264=LINE('',#1772,#326);
#265=LINE('',#1774,#327);
#266=LINE('',#1776,#328);
#267=LINE('',#1778,#329);
#268=LINE('',#1779,#330);
#269=LINE('',#1781,#331);
#270=LINE('',#1782,#332);
#271=LINE('',#1784,#333);
#272=LINE('',#1785,#334);
#273=LINE('',#1791,#335);
#274=VECTOR('',#1166,10.);
#275=VECTOR('',#1169,10.);
#276=VECTOR('',#1172,10.);
#277=VECTOR('',#1175,10.);
#278=VECTOR('',#1178,10.);
#279=VECTOR('',#1181,10.);
#280=VECTOR('',#1184,10.);
#281=VECTOR('',#1187,10.);
#282=VECTOR('',#1188,10.);
#283=VECTOR('',#1189,10.);
#284=VECTOR('',#1190,10.);
#285=VECTOR('',#1191,10.);
#286=VECTOR('',#1216,1.45);
#287=VECTOR('',#1227,1.95);
#288=VECTOR('',#1240,10.);
#289=VECTOR('',#1241,10.);
#290=VECTOR('',#1242,10.);
#291=VECTOR('',#1243,10.);
#292=VECTOR('',#1264,1.45);
#293=VECTOR('',#1275,1.95);
#294=VECTOR('',#1296,1.95);
#295=VECTOR('',#1313,1.45);
#296=VECTOR('',#1322,10.);
#297=VECTOR('',#1323,10.);
#298=VECTOR('',#1326,10.);
#299=VECTOR('',#1329,1.45);
#300=VECTOR('',#1334,1.45);
#301=VECTOR('',#1339,1.45);
#302=VECTOR('',#1344,1.45);
#303=VECTOR('',#1359,10.);
#304=VECTOR('',#1360,10.);
#305=VECTOR('',#1373,10.);
#306=VECTOR('',#1374,10.);
#307=VECTOR('',#1377,10.);
#308=VECTOR('',#1378,10.);
#309=VECTOR('',#1391,10.);
#310=VECTOR('',#1392,10.);
#311=VECTOR('',#1405,10.);
#312=VECTOR('',#1406,10.);
#313=VECTOR('',#1409,10.);
#314=VECTOR('',#1410,10.);
#315=VECTOR('',#1413,10.);
#316=VECTOR('',#1414,10.);
#317=VECTOR('',#1417,10.);
#318=VECTOR('',#1418,10.);
#319=VECTOR('',#1423,10.);
#320=VECTOR('',#1424,10.);
#321=VECTOR('',#1425,10.);
#322=VECTOR('',#1454,10.);
#323=VECTOR('',#1455,10.);
#324=VECTOR('',#1466,10.);
#325=VECTOR('',#1469,10.);
#326=VECTOR('',#1470,10.);
#327=VECTOR('',#1473,10.);
#328=VECTOR('',#1476,10.);
#329=VECTOR('',#1479,10.);
#330=VECTOR('',#1480,10.);
#331=VECTOR('',#1483,10.);
#332=VECTOR('',#1484,10.);
#333=VECTOR('',#1487,10.);
#334=VECTOR('',#1488,10.);
#335=VECTOR('',#1499,10.);
#336=CIRCLE('',#1021,0.5);
#337=CIRCLE('',#1022,0.5);
#338=CIRCLE('',#1023,0.5);
#339=CIRCLE('',#1024,0.5);
#340=CIRCLE('',#1025,0.5);
#341=CIRCLE('',#1026,0.5);
#342=CIRCLE('',#1027,0.5);
#343=CIRCLE('',#1028,0.5);
#344=CIRCLE('',#1029,1.45);
#345=CIRCLE('',#1030,1.45);
#346=CIRCLE('',#1031,1.45);
#347=CIRCLE('',#1032,1.45);
#348=CIRCLE('',#1034,1.54);
#349=CIRCLE('',#1035,0.09);
#350=CIRCLE('',#1036,1.45);
#351=CIRCLE('',#1037,1.45);
#352=CIRCLE('',#1039,1.86);
#353=CIRCLE('',#1041,1.45);
#354=CIRCLE('',#1043,0.09);
#355=CIRCLE('',#1044,1.95);
#356=CIRCLE('',#1046,1.95);
#357=CIRCLE('',#1047,1.95);
#358=CIRCLE('',#1049,0.09);
#359=CIRCLE('',#1050,2.04);
#360=CIRCLE('',#1052,2.04);
#361=CIRCLE('',#1053,2.04);
#362=CIRCLE('',#1055,1.54);
#363=CIRCLE('',#1056,0.09);
#364=CIRCLE('',#1057,1.45);
#365=CIRCLE('',#1058,1.45);
#366=CIRCLE('',#1060,1.86);
#367=CIRCLE('',#1062,1.45);
#368=CIRCLE('',#1064,0.09);
#369=CIRCLE('',#1065,1.95);
#370=CIRCLE('',#1067,1.95);
#371=CIRCLE('',#1068,1.95);
#372=CIRCLE('',#1070,0.09);
#373=CIRCLE('',#1072,1.95);
#374=CIRCLE('',#1073,0.09);
#375=CIRCLE('',#1074,1.95);
#376=CIRCLE('',#1076,1.95);
#377=CIRCLE('',#1078,1.54);
#378=CIRCLE('',#1079,0.09);
#379=CIRCLE('',#1080,1.45);
#380=CIRCLE('',#1081,1.45);
#381=CIRCLE('',#1083,1.86);
#382=CIRCLE('',#1085,1.45);
#383=CIRCLE('',#1087,0.09);
#384=CIRCLE('',#1091,1.45);
#385=CIRCLE('',#1093,1.45);
#386=CIRCLE('',#1095,1.45);
#387=CIRCLE('',#1097,1.45);
#388=CIRCLE('',#1099,0.5);
#389=CIRCLE('',#1100,0.499999999999998);
#390=CIRCLE('',#1101,1.);
#391=CIRCLE('',#1102,0.5);
#392=CIRCLE('',#1105,1.);
#393=CIRCLE('',#1106,0.499999999999999);
#394=CIRCLE('',#1107,0.5);
#395=CIRCLE('',#1108,0.500000000000007);
#396=CIRCLE('',#1112,1.);
#397=CIRCLE('',#1113,0.5);
#398=CIRCLE('',#1114,0.5);
#399=CIRCLE('',#1115,0.500000000000003);
#400=CIRCLE('',#1118,0.499999999999999);
#401=CIRCLE('',#1119,0.500000000000007);
#402=CIRCLE('',#1120,0.999999999999999);
#403=CIRCLE('',#1121,0.5);
#404=CIRCLE('',#1130,0.500000000000007);
#405=CIRCLE('',#1131,0.5);
#406=CIRCLE('',#1132,0.499999999999998);
#407=CIRCLE('',#1134,0.499999999999998);
#408=CIRCLE('',#1135,0.5);
#409=CIRCLE('',#1136,0.499999999999998);
#410=CIRCLE('',#1138,0.499999999999994);
#411=CIRCLE('',#1139,0.5);
#412=CIRCLE('',#1140,0.499999999999998);
#413=CIRCLE('',#1143,0.500000000000007);
#414=CIRCLE('',#1144,0.5);
#415=CIRCLE('',#1145,0.499999999999998);
#416=VERTEX_POINT('',#1506);
#417=VERTEX_POINT('',#1507);
#418=VERTEX_POINT('',#1509);
#419=VERTEX_POINT('',#1511);
#420=VERTEX_POINT('',#1513);
#421=VERTEX_POINT('',#1515);
#422=VERTEX_POINT('',#1517);
#423=VERTEX_POINT('',#1519);
#424=VERTEX_POINT('',#1521);
#425=VERTEX_POINT('',#1523);
#426=VERTEX_POINT('',#1525);
#427=VERTEX_POINT('',#1527);
#428=VERTEX_POINT('',#1529);
#429=VERTEX_POINT('',#1531);
#430=VERTEX_POINT('',#1533);
#431=VERTEX_POINT('',#1535);
#432=VERTEX_POINT('',#1537);
#433=VERTEX_POINT('',#1539);
#434=VERTEX_POINT('',#1541);
#435=VERTEX_POINT('',#1543);
#436=VERTEX_POINT('',#1546);
#437=VERTEX_POINT('',#1548);
#438=VERTEX_POINT('',#1550);
#439=VERTEX_POINT('',#1552);
#440=VERTEX_POINT('',#1555);
#441=VERTEX_POINT('',#1557);
#442=VERTEX_POINT('',#1559);
#443=VERTEX_POINT('',#1563);
#444=VERTEX_POINT('',#1566);
#445=VERTEX_POINT('',#1570);
#446=VERTEX_POINT('',#1574);
#447=VERTEX_POINT('',#1576);
#448=VERTEX_POINT('',#1580);
#449=VERTEX_POINT('',#1584);
#450=VERTEX_POINT('',#1585);
#451=VERTEX_POINT('',#1587);
#452=VERTEX_POINT('',#1589);
#453=VERTEX_POINT('',#1592);
#454=VERTEX_POINT('',#1594);
#455=VERTEX_POINT('',#1597);
#456=VERTEX_POINT('',#1599);
#457=VERTEX_POINT('',#1601);
#458=VERTEX_POINT('',#1605);
#459=VERTEX_POINT('',#1608);
#460=VERTEX_POINT('',#1612);
#461=VERTEX_POINT('',#1616);
#462=VERTEX_POINT('',#1618);
#463=VERTEX_POINT('',#1624);
#464=VERTEX_POINT('',#1625);
#465=VERTEX_POINT('',#1630);
#466=VERTEX_POINT('',#1634);
#467=VERTEX_POINT('',#1636);
#468=VERTEX_POINT('',#1638);
#469=VERTEX_POINT('',#1642);
#470=VERTEX_POINT('',#1645);
#471=VERTEX_POINT('',#1656);
#472=VERTEX_POINT('',#1660);
#473=VERTEX_POINT('',#1664);
#474=VERTEX_POINT('',#1668);
#475=VERTEX_POINT('',#1672);
#476=VERTEX_POINT('',#1673);
#477=VERTEX_POINT('',#1675);
#478=VERTEX_POINT('',#1677);
#479=VERTEX_POINT('',#1684);
#480=VERTEX_POINT('',#1685);
#481=VERTEX_POINT('',#1687);
#482=VERTEX_POINT('',#1689);
#483=VERTEX_POINT('',#1699);
#484=VERTEX_POINT('',#1700);
#485=VERTEX_POINT('',#1702);
#486=VERTEX_POINT('',#1704);
#487=VERTEX_POINT('',#1711);
#488=VERTEX_POINT('',#1712);
#489=VERTEX_POINT('',#1714);
#490=VERTEX_POINT('',#1716);
#491=VERTEX_POINT('',#1733);
#492=VERTEX_POINT('',#1735);
#493=VERTEX_POINT('',#1740);
#494=VERTEX_POINT('',#1741);
#495=VERTEX_POINT('',#1743);
#496=VERTEX_POINT('',#1747);
#497=VERTEX_POINT('',#1748);
#498=VERTEX_POINT('',#1750);
#499=VERTEX_POINT('',#1754);
#500=VERTEX_POINT('',#1756);
#501=VERTEX_POINT('',#1763);
#502=VERTEX_POINT('',#1765);
#503=EDGE_CURVE('',#416,#417,#336,.T.);
#504=EDGE_CURVE('',#417,#418,#212,.T.);
#505=EDGE_CURVE('',#418,#419,#337,.T.);
#506=EDGE_CURVE('',#419,#420,#213,.T.);
#507=EDGE_CURVE('',#420,#421,#338,.T.);
#508=EDGE_CURVE('',#421,#422,#214,.T.);
#509=EDGE_CURVE('',#422,#423,#339,.T.);
#510=EDGE_CURVE('',#423,#424,#215,.T.);
#511=EDGE_CURVE('',#424,#425,#340,.T.);
#512=EDGE_CURVE('',#425,#426,#216,.T.);
#513=EDGE_CURVE('',#426,#427,#341,.T.);
#514=EDGE_CURVE('',#427,#428,#217,.T.);
#515=EDGE_CURVE('',#428,#429,#342,.T.);
#516=EDGE_CURVE('',#429,#430,#218,.T.);
#517=EDGE_CURVE('',#430,#431,#343,.T.);
#518=EDGE_CURVE('',#431,#432,#219,.T.);
#519=EDGE_CURVE('',#432,#433,#220,.T.);
#520=EDGE_CURVE('',#433,#434,#221,.T.);
#521=EDGE_CURVE('',#434,#435,#222,.T.);
#522=EDGE_CURVE('',#435,#416,#223,.T.);
#523=EDGE_CURVE('',#436,#436,#344,.T.);
#524=EDGE_CURVE('',#437,#437,#345,.T.);
#525=EDGE_CURVE('',#438,#438,#346,.T.);
#526=EDGE_CURVE('',#439,#439,#347,.T.);
#527=EDGE_CURVE('',#440,#440,#348,.T.);
#528=EDGE_CURVE('',#440,#441,#349,.T.);
#529=EDGE_CURVE('',#441,#442,#350,.T.);
#530=EDGE_CURVE('',#442,#441,#351,.T.);
#531=EDGE_CURVE('',#443,#443,#352,.T.);
#532=EDGE_CURVE('',#442,#444,#224,.T.);
#533=EDGE_CURVE('',#444,#444,#353,.T.);
#534=EDGE_CURVE('',#443,#445,#354,.T.);
#535=EDGE_CURVE('',#445,#445,#355,.T.);
#536=EDGE_CURVE('',#445,#446,#225,.T.);
#537=EDGE_CURVE('',#447,#446,#356,.T.);
#538=EDGE_CURVE('',#446,#447,#357,.T.);
#539=EDGE_CURVE('',#447,#448,#358,.T.);
#540=EDGE_CURVE('',#448,#448,#359,.T.);
#541=EDGE_CURVE('',#449,#450,#226,.T.);
#542=EDGE_CURVE('',#451,#449,#227,.T.);
#543=EDGE_CURVE('',#452,#451,#228,.T.);
#544=EDGE_CURVE('',#450,#452,#229,.T.);
#545=EDGE_CURVE('',#453,#453,#360,.T.);
#546=EDGE_CURVE('',#454,#454,#361,.T.);
#547=EDGE_CURVE('',#455,#455,#362,.T.);
#548=EDGE_CURVE('',#455,#456,#363,.T.);
#549=EDGE_CURVE('',#456,#457,#364,.T.);
#550=EDGE_CURVE('',#457,#456,#365,.T.);
#551=EDGE_CURVE('',#458,#458,#366,.T.);
#552=EDGE_CURVE('',#457,#459,#230,.T.);
#553=EDGE_CURVE('',#459,#459,#367,.T.);
#554=EDGE_CURVE('',#458,#460,#368,.T.);
#555=EDGE_CURVE('',#460,#460,#369,.T.);
#556=EDGE_CURVE('',#460,#461,#231,.T.);
#557=EDGE_CURVE('',#462,#461,#370,.T.);
#558=EDGE_CURVE('',#461,#462,#371,.T.);
#559=EDGE_CURVE('',#462,#453,#372,.T.);
#560=EDGE_CURVE('',#463,#464,#373,.T.);
#561=EDGE_CURVE('',#464,#454,#374,.T.);
#562=EDGE_CURVE('',#464,#463,#375,.T.);
#563=EDGE_CURVE('',#465,#465,#376,.T.);
#564=EDGE_CURVE('',#465,#463,#232,.T.);
#565=EDGE_CURVE('',#466,#466,#377,.T.);
#566=EDGE_CURVE('',#466,#467,#378,.T.);
#567=EDGE_CURVE('',#467,#468,#379,.T.);
#568=EDGE_CURVE('',#468,#467,#380,.T.);
#569=EDGE_CURVE('',#469,#469,#381,.T.);
#570=EDGE_CURVE('',#468,#470,#233,.T.);
#571=EDGE_CURVE('',#470,#470,#382,.T.);
#572=EDGE_CURVE('',#469,#465,#383,.T.);
#573=EDGE_CURVE('',#450,#434,#234,.T.);
#574=EDGE_CURVE('',#449,#433,#235,.T.);
#575=EDGE_CURVE('',#452,#435,#236,.T.);
#576=EDGE_CURVE('',#436,#471,#237,.T.);
#577=EDGE_CURVE('',#471,#471,#384,.T.);
#578=EDGE_CURVE('',#437,#472,#238,.T.);
#579=EDGE_CURVE('',#472,#472,#385,.T.);
#580=EDGE_CURVE('',#438,#473,#239,.T.);
#581=EDGE_CURVE('',#473,#473,#386,.T.);
#582=EDGE_CURVE('',#439,#474,#240,.T.);
#583=EDGE_CURVE('',#474,#474,#387,.T.);
#584=EDGE_CURVE('',#475,#476,#388,.F.);
#585=EDGE_CURVE('',#477,#475,#389,.T.);
#586=EDGE_CURVE('',#477,#478,#390,.T.);
#587=EDGE_CURVE('',#476,#478,#391,.T.);
#588=EDGE_CURVE('',#416,#477,#241,.T.);
#589=EDGE_CURVE('',#475,#417,#242,.T.);
#590=EDGE_CURVE('',#479,#480,#392,.T.);
#591=EDGE_CURVE('',#481,#480,#393,.T.);
#592=EDGE_CURVE('',#482,#481,#394,.F.);
#593=EDGE_CURVE('',#479,#482,#395,.T.);
#594=EDGE_CURVE('',#418,#481,#243,.T.);
#595=EDGE_CURVE('',#480,#419,#244,.T.);
#596=EDGE_CURVE('',#481,#475,#245,.T.);
#597=EDGE_CURVE('',#476,#482,#246,.T.);
#598=EDGE_CURVE('',#483,#484,#396,.T.);
#599=EDGE_CURVE('',#485,#484,#397,.T.);
#600=EDGE_CURVE('',#486,#485,#398,.F.);
#601=EDGE_CURVE('',#483,#486,#399,.T.);
#602=EDGE_CURVE('',#430,#485,#247,.T.);
#603=EDGE_CURVE('',#484,#431,#248,.T.);
#604=EDGE_CURVE('',#487,#488,#400,.F.);
#605=EDGE_CURVE('',#489,#487,#401,.T.);
#606=EDGE_CURVE('',#489,#490,#402,.T.);
#607=EDGE_CURVE('',#488,#490,#403,.T.);
#608=EDGE_CURVE('',#428,#489,#249,.T.);
#609=EDGE_CURVE('',#487,#429,#250,.T.);
#610=EDGE_CURVE('',#490,#479,#251,.T.);
#611=EDGE_CURVE('',#482,#488,#252,.T.);
#612=EDGE_CURVE('',#485,#487,#253,.T.);
#613=EDGE_CURVE('',#488,#486,#254,.T.);
#614=EDGE_CURVE('',#478,#483,#255,.T.);
#615=EDGE_CURVE('',#486,#476,#256,.T.);
#616=EDGE_CURVE('',#491,#427,#257,.T.);
#617=EDGE_CURVE('',#492,#491,#258,.T.);
#618=EDGE_CURVE('',#420,#492,#259,.T.);
#619=EDGE_CURVE('',#493,#494,#404,.F.);
#620=EDGE_CURVE('',#495,#493,#405,.F.);
#621=EDGE_CURVE('',#494,#495,#406,.F.);
#622=EDGE_CURVE('',#496,#497,#407,.F.);
#623=EDGE_CURVE('',#498,#496,#408,.F.);
#624=EDGE_CURVE('',#497,#498,#409,.F.);
#625=EDGE_CURVE('',#499,#491,#410,.F.);
#626=EDGE_CURVE('',#500,#499,#411,.F.);
#627=EDGE_CURVE('',#491,#500,#412,.F.);
#628=EDGE_CURVE('',#495,#500,#260,.T.);
#629=EDGE_CURVE('',#499,#494,#261,.T.);
#630=EDGE_CURVE('',#492,#501,#413,.F.);
#631=EDGE_CURVE('',#502,#492,#414,.F.);
#632=EDGE_CURVE('',#501,#502,#415,.F.);
#633=EDGE_CURVE('',#500,#502,#262,.T.);
#634=EDGE_CURVE('',#502,#498,#263,.T.);
#635=EDGE_CURVE('',#496,#501,#264,.T.);
#636=EDGE_CURVE('',#501,#421,#265,.T.);
#637=EDGE_CURVE('',#426,#499,#266,.T.);
#638=EDGE_CURVE('',#498,#495,#267,.T.);
#639=EDGE_CURVE('',#493,#497,#268,.T.);
#640=EDGE_CURVE('',#422,#496,#269,.T.);
#641=EDGE_CURVE('',#497,#423,#270,.T.);
#642=EDGE_CURVE('',#424,#493,#271,.T.);
#643=EDGE_CURVE('',#494,#425,#272,.T.);
#644=EDGE_CURVE('',#451,#432,#273,.T.);
#645=ORIENTED_EDGE('',*,*,#503,.T.);
#646=ORIENTED_EDGE('',*,*,#504,.T.);
#647=ORIENTED_EDGE('',*,*,#505,.T.);
#648=ORIENTED_EDGE('',*,*,#506,.T.);
#649=ORIENTED_EDGE('',*,*,#507,.T.);
#650=ORIENTED_EDGE('',*,*,#508,.T.);
#651=ORIENTED_EDGE('',*,*,#509,.T.);
#652=ORIENTED_EDGE('',*,*,#510,.T.);
#653=ORIENTED_EDGE('',*,*,#511,.T.);
#654=ORIENTED_EDGE('',*,*,#512,.T.);
#655=ORIENTED_EDGE('',*,*,#513,.T.);
#656=ORIENTED_EDGE('',*,*,#514,.T.);
#657=ORIENTED_EDGE('',*,*,#515,.T.);
#658=ORIENTED_EDGE('',*,*,#516,.T.);
#659=ORIENTED_EDGE('',*,*,#517,.T.);
#660=ORIENTED_EDGE('',*,*,#518,.T.);
#661=ORIENTED_EDGE('',*,*,#519,.T.);
#662=ORIENTED_EDGE('',*,*,#520,.T.);
#663=ORIENTED_EDGE('',*,*,#521,.T.);
#664=ORIENTED_EDGE('',*,*,#522,.T.);
#665=ORIENTED_EDGE('',*,*,#523,.T.);
#666=ORIENTED_EDGE('',*,*,#524,.T.);
#667=ORIENTED_EDGE('',*,*,#525,.T.);
#668=ORIENTED_EDGE('',*,*,#526,.T.);
#669=ORIENTED_EDGE('',*,*,#527,.T.);
#670=ORIENTED_EDGE('',*,*,#528,.T.);
#671=ORIENTED_EDGE('',*,*,#529,.T.);
#672=ORIENTED_EDGE('',*,*,#530,.T.);
#673=ORIENTED_EDGE('',*,*,#528,.F.);
#674=ORIENTED_EDGE('',*,*,#531,.F.);
#675=ORIENTED_EDGE('',*,*,#527,.F.);
#676=ORIENTED_EDGE('',*,*,#530,.F.);
#677=ORIENTED_EDGE('',*,*,#532,.T.);
#678=ORIENTED_EDGE('',*,*,#533,.F.);
#679=ORIENTED_EDGE('',*,*,#532,.F.);
#680=ORIENTED_EDGE('',*,*,#529,.F.);
#681=ORIENTED_EDGE('',*,*,#531,.T.);
#682=ORIENTED_EDGE('',*,*,#534,.T.);
#683=ORIENTED_EDGE('',*,*,#535,.T.);
#684=ORIENTED_EDGE('',*,*,#534,.F.);
#685=ORIENTED_EDGE('',*,*,#535,.F.);
#686=ORIENTED_EDGE('',*,*,#536,.T.);
#687=ORIENTED_EDGE('',*,*,#537,.F.);
#688=ORIENTED_EDGE('',*,*,#538,.F.);
#689=ORIENTED_EDGE('',*,*,#536,.F.);
#690=ORIENTED_EDGE('',*,*,#538,.T.);
#691=ORIENTED_EDGE('',*,*,#539,.T.);
#692=ORIENTED_EDGE('',*,*,#540,.T.);
#693=ORIENTED_EDGE('',*,*,#539,.F.);
#694=ORIENTED_EDGE('',*,*,#537,.T.);
#695=ORIENTED_EDGE('',*,*,#541,.F.);
#696=ORIENTED_EDGE('',*,*,#542,.F.);
#697=ORIENTED_EDGE('',*,*,#543,.F.);
#698=ORIENTED_EDGE('',*,*,#544,.F.);
#699=ORIENTED_EDGE('',*,*,#545,.F.);
#700=ORIENTED_EDGE('',*,*,#546,.F.);
#701=ORIENTED_EDGE('',*,*,#540,.F.);
#702=ORIENTED_EDGE('',*,*,#547,.T.);
#703=ORIENTED_EDGE('',*,*,#548,.T.);
#704=ORIENTED_EDGE('',*,*,#549,.T.);
#705=ORIENTED_EDGE('',*,*,#550,.T.);
#706=ORIENTED_EDGE('',*,*,#548,.F.);
#707=ORIENTED_EDGE('',*,*,#551,.F.);
#708=ORIENTED_EDGE('',*,*,#547,.F.);
#709=ORIENTED_EDGE('',*,*,#550,.F.);
#710=ORIENTED_EDGE('',*,*,#552,.T.);
#711=ORIENTED_EDGE('',*,*,#553,.F.);
#712=ORIENTED_EDGE('',*,*,#552,.F.);
#713=ORIENTED_EDGE('',*,*,#549,.F.);
#714=ORIENTED_EDGE('',*,*,#551,.T.);
#715=ORIENTED_EDGE('',*,*,#554,.T.);
#716=ORIENTED_EDGE('',*,*,#555,.T.);
#717=ORIENTED_EDGE('',*,*,#554,.F.);
#718=ORIENTED_EDGE('',*,*,#555,.F.);
#719=ORIENTED_EDGE('',*,*,#556,.T.);
#720=ORIENTED_EDGE('',*,*,#557,.F.);
#721=ORIENTED_EDGE('',*,*,#558,.F.);
#722=ORIENTED_EDGE('',*,*,#556,.F.);
#723=ORIENTED_EDGE('',*,*,#558,.T.);
#724=ORIENTED_EDGE('',*,*,#559,.T.);
#725=ORIENTED_EDGE('',*,*,#545,.T.);
#726=ORIENTED_EDGE('',*,*,#559,.F.);
#727=ORIENTED_EDGE('',*,*,#557,.T.);
#728=ORIENTED_EDGE('',*,*,#560,.T.);
#729=ORIENTED_EDGE('',*,*,#561,.T.);
#730=ORIENTED_EDGE('',*,*,#546,.T.);
#731=ORIENTED_EDGE('',*,*,#561,.F.);
#732=ORIENTED_EDGE('',*,*,#562,.T.);
#733=ORIENTED_EDGE('',*,*,#563,.F.);
#734=ORIENTED_EDGE('',*,*,#564,.T.);
#735=ORIENTED_EDGE('',*,*,#562,.F.);
#736=ORIENTED_EDGE('',*,*,#560,.F.);
#737=ORIENTED_EDGE('',*,*,#564,.F.);
#738=ORIENTED_EDGE('',*,*,#565,.T.);
#739=ORIENTED_EDGE('',*,*,#566,.T.);
#740=ORIENTED_EDGE('',*,*,#567,.T.);
#741=ORIENTED_EDGE('',*,*,#568,.T.);
#742=ORIENTED_EDGE('',*,*,#566,.F.);
#743=ORIENTED_EDGE('',*,*,#569,.F.);
#744=ORIENTED_EDGE('',*,*,#565,.F.);
#745=ORIENTED_EDGE('',*,*,#568,.F.);
#746=ORIENTED_EDGE('',*,*,#570,.T.);
#747=ORIENTED_EDGE('',*,*,#571,.F.);
#748=ORIENTED_EDGE('',*,*,#570,.F.);
#749=ORIENTED_EDGE('',*,*,#567,.F.);
#750=ORIENTED_EDGE('',*,*,#569,.T.);
#751=ORIENTED_EDGE('',*,*,#572,.T.);
#752=ORIENTED_EDGE('',*,*,#563,.T.);
#753=ORIENTED_EDGE('',*,*,#572,.F.);
#754=ORIENTED_EDGE('',*,*,#541,.T.);
#755=ORIENTED_EDGE('',*,*,#573,.T.);
#756=ORIENTED_EDGE('',*,*,#520,.F.);
#757=ORIENTED_EDGE('',*,*,#574,.F.);
#758=ORIENTED_EDGE('',*,*,#544,.T.);
#759=ORIENTED_EDGE('',*,*,#575,.T.);
#760=ORIENTED_EDGE('',*,*,#521,.F.);
#761=ORIENTED_EDGE('',*,*,#573,.F.);
#762=ORIENTED_EDGE('',*,*,#523,.F.);
#763=ORIENTED_EDGE('',*,*,#576,.T.);
#764=ORIENTED_EDGE('',*,*,#577,.F.);
#765=ORIENTED_EDGE('',*,*,#576,.F.);
#766=ORIENTED_EDGE('',*,*,#524,.F.);
#767=ORIENTED_EDGE('',*,*,#578,.T.);
#768=ORIENTED_EDGE('',*,*,#579,.F.);
#769=ORIENTED_EDGE('',*,*,#578,.F.);
#770=ORIENTED_EDGE('',*,*,#525,.F.);
#771=ORIENTED_EDGE('',*,*,#580,.T.);
#772=ORIENTED_EDGE('',*,*,#581,.F.);
#773=ORIENTED_EDGE('',*,*,#580,.F.);
#774=ORIENTED_EDGE('',*,*,#526,.F.);
#775=ORIENTED_EDGE('',*,*,#582,.T.);
#776=ORIENTED_EDGE('',*,*,#583,.F.);
#777=ORIENTED_EDGE('',*,*,#582,.F.);
#778=ORIENTED_EDGE('',*,*,#584,.F.);
#779=ORIENTED_EDGE('',*,*,#585,.F.);
#780=ORIENTED_EDGE('',*,*,#586,.T.);
#781=ORIENTED_EDGE('',*,*,#587,.F.);
#782=ORIENTED_EDGE('',*,*,#588,.T.);
#783=ORIENTED_EDGE('',*,*,#585,.T.);
#784=ORIENTED_EDGE('',*,*,#589,.T.);
#785=ORIENTED_EDGE('',*,*,#503,.F.);
#786=ORIENTED_EDGE('',*,*,#590,.T.);
#787=ORIENTED_EDGE('',*,*,#591,.F.);
#788=ORIENTED_EDGE('',*,*,#592,.F.);
#789=ORIENTED_EDGE('',*,*,#593,.F.);
#790=ORIENTED_EDGE('',*,*,#594,.T.);
#791=ORIENTED_EDGE('',*,*,#591,.T.);
#792=ORIENTED_EDGE('',*,*,#595,.T.);
#793=ORIENTED_EDGE('',*,*,#505,.F.);
#794=ORIENTED_EDGE('',*,*,#592,.T.);
#795=ORIENTED_EDGE('',*,*,#596,.T.);
#796=ORIENTED_EDGE('',*,*,#584,.T.);
#797=ORIENTED_EDGE('',*,*,#597,.T.);
#798=ORIENTED_EDGE('',*,*,#598,.T.);
#799=ORIENTED_EDGE('',*,*,#599,.F.);
#800=ORIENTED_EDGE('',*,*,#600,.F.);
#801=ORIENTED_EDGE('',*,*,#601,.F.);
#802=ORIENTED_EDGE('',*,*,#602,.T.);
#803=ORIENTED_EDGE('',*,*,#599,.T.);
#804=ORIENTED_EDGE('',*,*,#603,.T.);
#805=ORIENTED_EDGE('',*,*,#517,.F.);
#806=ORIENTED_EDGE('',*,*,#604,.F.);
#807=ORIENTED_EDGE('',*,*,#605,.F.);
#808=ORIENTED_EDGE('',*,*,#606,.T.);
#809=ORIENTED_EDGE('',*,*,#607,.F.);
#810=ORIENTED_EDGE('',*,*,#608,.T.);
#811=ORIENTED_EDGE('',*,*,#605,.T.);
#812=ORIENTED_EDGE('',*,*,#609,.T.);
#813=ORIENTED_EDGE('',*,*,#515,.F.);
#814=ORIENTED_EDGE('',*,*,#607,.T.);
#815=ORIENTED_EDGE('',*,*,#610,.T.);
#816=ORIENTED_EDGE('',*,*,#593,.T.);
#817=ORIENTED_EDGE('',*,*,#611,.T.);
#818=ORIENTED_EDGE('',*,*,#600,.T.);
#819=ORIENTED_EDGE('',*,*,#612,.T.);
#820=ORIENTED_EDGE('',*,*,#604,.T.);
#821=ORIENTED_EDGE('',*,*,#613,.T.);
#822=ORIENTED_EDGE('',*,*,#587,.T.);
#823=ORIENTED_EDGE('',*,*,#614,.T.);
#824=ORIENTED_EDGE('',*,*,#601,.T.);
#825=ORIENTED_EDGE('',*,*,#615,.T.);
#826=ORIENTED_EDGE('',*,*,#589,.F.);
#827=ORIENTED_EDGE('',*,*,#596,.F.);
#828=ORIENTED_EDGE('',*,*,#594,.F.);
#829=ORIENTED_EDGE('',*,*,#504,.F.);
#830=ORIENTED_EDGE('',*,*,#595,.F.);
#831=ORIENTED_EDGE('',*,*,#590,.F.);
#832=ORIENTED_EDGE('',*,*,#610,.F.);
#833=ORIENTED_EDGE('',*,*,#606,.F.);
#834=ORIENTED_EDGE('',*,*,#608,.F.);
#835=ORIENTED_EDGE('',*,*,#514,.F.);
#836=ORIENTED_EDGE('',*,*,#616,.F.);
#837=ORIENTED_EDGE('',*,*,#617,.F.);
#838=ORIENTED_EDGE('',*,*,#618,.F.);
#839=ORIENTED_EDGE('',*,*,#506,.F.);
#840=ORIENTED_EDGE('',*,*,#597,.F.);
#841=ORIENTED_EDGE('',*,*,#615,.F.);
#842=ORIENTED_EDGE('',*,*,#613,.F.);
#843=ORIENTED_EDGE('',*,*,#611,.F.);
#844=ORIENTED_EDGE('',*,*,#619,.F.);
#845=ORIENTED_EDGE('',*,*,#620,.F.);
#846=ORIENTED_EDGE('',*,*,#621,.F.);
#847=ORIENTED_EDGE('',*,*,#622,.F.);
#848=ORIENTED_EDGE('',*,*,#623,.F.);
#849=ORIENTED_EDGE('',*,*,#624,.F.);
#850=ORIENTED_EDGE('',*,*,#625,.F.);
#851=ORIENTED_EDGE('',*,*,#626,.F.);
#852=ORIENTED_EDGE('',*,*,#627,.F.);
#853=ORIENTED_EDGE('',*,*,#621,.T.);
#854=ORIENTED_EDGE('',*,*,#628,.T.);
#855=ORIENTED_EDGE('',*,*,#626,.T.);
#856=ORIENTED_EDGE('',*,*,#629,.T.);
#857=ORIENTED_EDGE('',*,*,#630,.F.);
#858=ORIENTED_EDGE('',*,*,#631,.F.);
#859=ORIENTED_EDGE('',*,*,#632,.F.);
#860=ORIENTED_EDGE('',*,*,#627,.T.);
#861=ORIENTED_EDGE('',*,*,#633,.T.);
#862=ORIENTED_EDGE('',*,*,#631,.T.);
#863=ORIENTED_EDGE('',*,*,#617,.T.);
#864=ORIENTED_EDGE('',*,*,#632,.T.);
#865=ORIENTED_EDGE('',*,*,#634,.T.);
#866=ORIENTED_EDGE('',*,*,#623,.T.);
#867=ORIENTED_EDGE('',*,*,#635,.T.);
#868=ORIENTED_EDGE('',*,*,#618,.T.);
#869=ORIENTED_EDGE('',*,*,#630,.T.);
#870=ORIENTED_EDGE('',*,*,#636,.T.);
#871=ORIENTED_EDGE('',*,*,#507,.F.);
#872=ORIENTED_EDGE('',*,*,#637,.T.);
#873=ORIENTED_EDGE('',*,*,#625,.T.);
#874=ORIENTED_EDGE('',*,*,#616,.T.);
#875=ORIENTED_EDGE('',*,*,#513,.F.);
#876=ORIENTED_EDGE('',*,*,#624,.T.);
#877=ORIENTED_EDGE('',*,*,#638,.T.);
#878=ORIENTED_EDGE('',*,*,#620,.T.);
#879=ORIENTED_EDGE('',*,*,#639,.T.);
#880=ORIENTED_EDGE('',*,*,#640,.T.);
#881=ORIENTED_EDGE('',*,*,#622,.T.);
#882=ORIENTED_EDGE('',*,*,#641,.T.);
#883=ORIENTED_EDGE('',*,*,#509,.F.);
#884=ORIENTED_EDGE('',*,*,#642,.T.);
#885=ORIENTED_EDGE('',*,*,#619,.T.);
#886=ORIENTED_EDGE('',*,*,#643,.T.);
#887=ORIENTED_EDGE('',*,*,#511,.F.);
#888=ORIENTED_EDGE('',*,*,#636,.F.);
#889=ORIENTED_EDGE('',*,*,#635,.F.);
#890=ORIENTED_EDGE('',*,*,#640,.F.);
#891=ORIENTED_EDGE('',*,*,#508,.F.);
#892=ORIENTED_EDGE('',*,*,#641,.F.);
#893=ORIENTED_EDGE('',*,*,#639,.F.);
#894=ORIENTED_EDGE('',*,*,#642,.F.);
#895=ORIENTED_EDGE('',*,*,#510,.F.);
#896=ORIENTED_EDGE('',*,*,#628,.F.);
#897=ORIENTED_EDGE('',*,*,#638,.F.);
#898=ORIENTED_EDGE('',*,*,#634,.F.);
#899=ORIENTED_EDGE('',*,*,#633,.F.);
#900=ORIENTED_EDGE('',*,*,#553,.T.);
#901=ORIENTED_EDGE('',*,*,#571,.T.);
#902=ORIENTED_EDGE('',*,*,#533,.T.);
#903=ORIENTED_EDGE('',*,*,#577,.T.);
#904=ORIENTED_EDGE('',*,*,#579,.T.);
#905=ORIENTED_EDGE('',*,*,#581,.T.);
#906=ORIENTED_EDGE('',*,*,#583,.T.);
#907=ORIENTED_EDGE('',*,*,#602,.F.);
#908=ORIENTED_EDGE('',*,*,#516,.F.);
#909=ORIENTED_EDGE('',*,*,#609,.F.);
#910=ORIENTED_EDGE('',*,*,#612,.F.);
#911=ORIENTED_EDGE('',*,*,#543,.T.);
#912=ORIENTED_EDGE('',*,*,#644,.T.);
#913=ORIENTED_EDGE('',*,*,#518,.F.);
#914=ORIENTED_EDGE('',*,*,#603,.F.);
#915=ORIENTED_EDGE('',*,*,#598,.F.);
#916=ORIENTED_EDGE('',*,*,#614,.F.);
#917=ORIENTED_EDGE('',*,*,#586,.F.);
#918=ORIENTED_EDGE('',*,*,#588,.F.);
#919=ORIENTED_EDGE('',*,*,#522,.F.);
#920=ORIENTED_EDGE('',*,*,#575,.F.);
#921=ORIENTED_EDGE('',*,*,#637,.F.);
#922=ORIENTED_EDGE('',*,*,#512,.F.);
#923=ORIENTED_EDGE('',*,*,#643,.F.);
#924=ORIENTED_EDGE('',*,*,#629,.F.);
#925=ORIENTED_EDGE('',*,*,#542,.T.);
#926=ORIENTED_EDGE('',*,*,#574,.T.);
#927=ORIENTED_EDGE('',*,*,#519,.F.);
#928=ORIENTED_EDGE('',*,*,#644,.F.);
#929=PLANE('',#1020);
#930=PLANE('',#1038);
#931=PLANE('',#1051);
#932=PLANE('',#1059);
#933=PLANE('',#1082);
#934=PLANE('',#1088);
#935=PLANE('',#1089);
#936=PLANE('',#1126);
#937=PLANE('',#1127);
#938=PLANE('',#1128);
#939=PLANE('',#1153);
#940=PLANE('',#1154);
#941=PLANE('',#1155);
#942=PLANE('',#1156);
#943=PLANE('',#1157);
#944=PLANE('',#1158);
#945=PLANE('',#1159);
#946=ADVANCED_FACE('',(#75,#58,#59,#60,#61),#929,.T.);
#947=ADVANCED_FACE('',(#76),#45,.T.);
#948=ADVANCED_FACE('',(#77,#62),#930,.T.);
#949=ADVANCED_FACE('',(#78),#19,.F.);
#950=ADVANCED_FACE('',(#79),#46,.T.);
#951=ADVANCED_FACE('',(#80),#20,.T.);
#952=ADVANCED_FACE('',(#81),#47,.F.);
#953=ADVANCED_FACE('',(#82,#63,#64,#65),#931,.T.);
#954=ADVANCED_FACE('',(#83),#48,.T.);
#955=ADVANCED_FACE('',(#84,#66),#932,.T.);
#956=ADVANCED_FACE('',(#85),#21,.F.);
#957=ADVANCED_FACE('',(#86),#49,.T.);
#958=ADVANCED_FACE('',(#87),#22,.T.);
#959=ADVANCED_FACE('',(#88),#50,.F.);
#960=ADVANCED_FACE('',(#89),#51,.F.);
#961=ADVANCED_FACE('',(#90),#23,.T.);
#962=ADVANCED_FACE('',(#91),#52,.T.);
#963=ADVANCED_FACE('',(#92,#67),#933,.T.);
#964=ADVANCED_FACE('',(#93),#24,.F.);
#965=ADVANCED_FACE('',(#94),#53,.T.);
#966=ADVANCED_FACE('',(#95),#934,.T.);
#967=ADVANCED_FACE('',(#96),#935,.T.);
#968=ADVANCED_FACE('',(#97),#25,.F.);
#969=ADVANCED_FACE('',(#98),#26,.F.);
#970=ADVANCED_FACE('',(#99),#27,.F.);
#971=ADVANCED_FACE('',(#100),#28,.F.);
#972=ADVANCED_FACE('',(#101),#54,.T.);
#973=ADVANCED_FACE('',(#102),#29,.T.);
#974=ADVANCED_FACE('',(#103),#55,.T.);
#975=ADVANCED_FACE('',(#104),#30,.T.);
#976=ADVANCED_FACE('',(#105),#31,.F.);
#977=ADVANCED_FACE('',(#106),#56,.T.);
#978=ADVANCED_FACE('',(#107),#32,.T.);
#979=ADVANCED_FACE('',(#108),#57,.T.);
#980=ADVANCED_FACE('',(#109),#33,.T.);
#981=ADVANCED_FACE('',(#110),#34,.T.);
#982=ADVANCED_FACE('',(#111),#35,.F.);
#983=ADVANCED_FACE('',(#112),#36,.T.);
#984=ADVANCED_FACE('',(#113),#936,.F.);
#985=ADVANCED_FACE('',(#114),#937,.T.);
#986=ADVANCED_FACE('',(#115),#938,.F.);
#987=ADVANCED_FACE('',(#116),#15,.T.);
#988=ADVANCED_FACE('',(#117),#16,.T.);
#989=ADVANCED_FACE('',(#118),#17,.T.);
#990=ADVANCED_FACE('',(#119),#37,.T.);
#991=ADVANCED_FACE('',(#120),#18,.T.);
#992=ADVANCED_FACE('',(#121),#38,.T.);
#993=ADVANCED_FACE('',(#122),#39,.T.);
#994=ADVANCED_FACE('',(#123),#40,.T.);
#995=ADVANCED_FACE('',(#124),#41,.T.);
#996=ADVANCED_FACE('',(#125),#42,.T.);
#997=ADVANCED_FACE('',(#126),#43,.T.);
#998=ADVANCED_FACE('',(#127),#44,.T.);
#999=ADVANCED_FACE('',(#128),#939,.T.);
#1000=ADVANCED_FACE('',(#129),#940,.T.);
#1001=ADVANCED_FACE('',(#130,#68,#69,#70,#71,#72,#73,#74),#941,.F.);
#1002=ADVANCED_FACE('',(#131),#942,.F.);
#1003=ADVANCED_FACE('',(#132),#943,.T.);
#1004=ADVANCED_FACE('',(#133),#944,.T.);
#1005=ADVANCED_FACE('',(#134),#945,.T.);
#1006=CLOSED_SHELL('',(#946,#947,#948,#949,#950,#951,#952,#953,#954,#955,
#956,#957,#958,#959,#960,#961,#962,#963,#964,#965,#966,#967,#968,#969,#970,
#971,#972,#973,#974,#975,#976,#977,#978,#979,#980,#981,#982,#983,#984,#985,
#986,#987,#988,#989,#990,#991,#992,#993,#994,#995,#996,#997,#998,#999,#1000,
#1001,#1002,#1003,#1004,#1005));
#1007=DERIVED_UNIT_ELEMENT(#1009,1.);
#1008=DERIVED_UNIT_ELEMENT(#1799,-3.);
#1009=(
MASS_UNIT()
NAMED_UNIT(*)
SI_UNIT(.KILO.,.GRAM.)
);
#1010=DERIVED_UNIT((#1007,#1008));
#1011=MEASURE_REPRESENTATION_ITEM('density measure',
POSITIVE_RATIO_MEASURE(7850.),#1010);
#1012=PROPERTY_DEFINITION_REPRESENTATION(#1017,#1014);
#1013=PROPERTY_DEFINITION_REPRESENTATION(#1018,#1015);
#1014=REPRESENTATION('material name',(#1016),#1796);
#1015=REPRESENTATION('density',(#1011),#1796);
#1016=DESCRIPTIVE_REPRESENTATION_ITEM('Steel','Steel');
#1017=PROPERTY_DEFINITION('material property','material name',#1806);
#1018=PROPERTY_DEFINITION('material property','density of part',#1806);
#1019=AXIS2_PLACEMENT_3D('',#1504,#1160,#1161);
#1020=AXIS2_PLACEMENT_3D('',#1505,#1162,#1163);
#1021=AXIS2_PLACEMENT_3D('',#1508,#1164,#1165);
#1022=AXIS2_PLACEMENT_3D('',#1512,#1167,#1168);
#1023=AXIS2_PLACEMENT_3D('',#1516,#1170,#1171);
#1024=AXIS2_PLACEMENT_3D('',#1520,#1173,#1174);
#1025=AXIS2_PLACEMENT_3D('',#1524,#1176,#1177);
#1026=AXIS2_PLACEMENT_3D('',#1528,#1179,#1180);
#1027=AXIS2_PLACEMENT_3D('',#1532,#1182,#1183);
#1028=AXIS2_PLACEMENT_3D('',#1536,#1185,#1186);
#1029=AXIS2_PLACEMENT_3D('',#1547,#1192,#1193);
#1030=AXIS2_PLACEMENT_3D('',#1549,#1194,#1195);
#1031=AXIS2_PLACEMENT_3D('',#1551,#1196,#1197);
#1032=AXIS2_PLACEMENT_3D('',#1553,#1198,#1199);
#1033=AXIS2_PLACEMENT_3D('',#1554,#1200,#1201);
#1034=AXIS2_PLACEMENT_3D('',#1556,#1202,#1203);
#1035=AXIS2_PLACEMENT_3D('',#1558,#1204,#1205);
#1036=AXIS2_PLACEMENT_3D('',#1560,#1206,#1207);
#1037=AXIS2_PLACEMENT_3D('',#1561,#1208,#1209);
#1038=AXIS2_PLACEMENT_3D('',#1562,#1210,#1211);
#1039=AXIS2_PLACEMENT_3D('',#1564,#1212,#1213);
#1040=AXIS2_PLACEMENT_3D('',#1565,#1214,#1215);
#1041=AXIS2_PLACEMENT_3D('',#1568,#1217,#1218);
#1042=AXIS2_PLACEMENT_3D('',#1569,#1219,#1220);
#1043=AXIS2_PLACEMENT_3D('',#1571,#1221,#1222);
#1044=AXIS2_PLACEMENT_3D('',#1572,#1223,#1224);
#1045=AXIS2_PLACEMENT_3D('',#1573,#1225,#1226);
#1046=AXIS2_PLACEMENT_3D('',#1577,#1228,#1229);
#1047=AXIS2_PLACEMENT_3D('',#1578,#1230,#1231);
#1048=AXIS2_PLACEMENT_3D('',#1579,#1232,#1233);
#1049=AXIS2_PLACEMENT_3D('',#1581,#1234,#1235);
#1050=AXIS2_PLACEMENT_3D('',#1582,#1236,#1237);
#1051=AXIS2_PLACEMENT_3D('',#1583,#1238,#1239);
#1052=AXIS2_PLACEMENT_3D('',#1593,#1244,#1245);
#1053=AXIS2_PLACEMENT_3D('',#1595,#1246,#1247);
#1054=AXIS2_PLACEMENT_3D('',#1596,#1248,#1249);
#1055=AXIS2_PLACEMENT_3D('',#1598,#1250,#1251);
#1056=AXIS2_PLACEMENT_3D('',#1600,#1252,#1253);
#1057=AXIS2_PLACEMENT_3D('',#1602,#1254,#1255);
#1058=AXIS2_PLACEMENT_3D('',#1603,#1256,#1257);
#1059=AXIS2_PLACEMENT_3D('',#1604,#1258,#1259);
#1060=AXIS2_PLACEMENT_3D('',#1606,#1260,#1261);
#1061=AXIS2_PLACEMENT_3D('',#1607,#1262,#1263);
#1062=AXIS2_PLACEMENT_3D('',#1610,#1265,#1266);
#1063=AXIS2_PLACEMENT_3D('',#1611,#1267,#1268);
#1064=AXIS2_PLACEMENT_3D('',#1613,#1269,#1270);
#1065=AXIS2_PLACEMENT_3D('',#1614,#1271,#1272);
#1066=AXIS2_PLACEMENT_3D('',#1615,#1273,#1274);
#1067=AXIS2_PLACEMENT_3D('',#1619,#1276,#1277);
#1068=AXIS2_PLACEMENT_3D('',#1620,#1278,#1279);
#1069=AXIS2_PLACEMENT_3D('',#1621,#1280,#1281);
#1070=AXIS2_PLACEMENT_3D('',#1622,#1282,#1283);
#1071=AXIS2_PLACEMENT_3D('',#1623,#1284,#1285);
#1072=AXIS2_PLACEMENT_3D('',#1626,#1286,#1287);
#1073=AXIS2_PLACEMENT_3D('',#1627,#1288,#1289);
#1074=AXIS2_PLACEMENT_3D('',#1628,#1290,#1291);
#1075=AXIS2_PLACEMENT_3D('',#1629,#1292,#1293);
#1076=AXIS2_PLACEMENT_3D('',#1631,#1294,#1295);
#1077=AXIS2_PLACEMENT_3D('',#1633,#1297,#1298);
#1078=AXIS2_PLACEMENT_3D('',#1635,#1299,#1300);
#1079=AXIS2_PLACEMENT_3D('',#1637,#1301,#1302);
#1080=AXIS2_PLACEMENT_3D('',#1639,#1303,#1304);
#1081=AXIS2_PLACEMENT_3D('',#1640,#1305,#1306);
#1082=AXIS2_PLACEMENT_3D('',#1641,#1307,#1308);
#1083=AXIS2_PLACEMENT_3D('',#1643,#1309,#1310);
#1084=AXIS2_PLACEMENT_3D('',#1644,#1311,#1312);
#1085=AXIS2_PLACEMENT_3D('',#1647,#1314,#1315);
#1086=AXIS2_PLACEMENT_3D('',#1648,#1316,#1317);
#1087=AXIS2_PLACEMENT_3D('',#1649,#1318,#1319);
#1088=AXIS2_PLACEMENT_3D('',#1650,#1320,#1321);
#1089=AXIS2_PLACEMENT_3D('',#1653,#1324,#1325);
#1090=AXIS2_PLACEMENT_3D('',#1655,#1327,#1328);
#1091=AXIS2_PLACEMENT_3D('',#1658,#1330,#1331);
#1092=AXIS2_PLACEMENT_3D('',#1659,#1332,#1333);
#1093=AXIS2_PLACEMENT_3D('',#1662,#1335,#1336);
#1094=AXIS2_PLACEMENT_3D('',#1663,#1337,#1338);
#1095=AXIS2_PLACEMENT_3D('',#1666,#1340,#1341);
#1096=AXIS2_PLACEMENT_3D('',#1667,#1342,#1343);
#1097=AXIS2_PLACEMENT_3D('',#1670,#1345,#1346);
#1098=AXIS2_PLACEMENT_3D('',#1671,#1347,#1348);
#1099=AXIS2_PLACEMENT_3D('',#1674,#1349,#1350);
#1100=AXIS2_PLACEMENT_3D('',#1676,#1351,#1352);
#1101=AXIS2_PLACEMENT_3D('',#1678,#1353,#1354);
#1102=AXIS2_PLACEMENT_3D('',#1679,#1355,#1356);
#1103=AXIS2_PLACEMENT_3D('',#1680,#1357,#1358);
#1104=AXIS2_PLACEMENT_3D('',#1683,#1361,#1362);
#1105=AXIS2_PLACEMENT_3D('',#1686,#1363,#1364);
#1106=AXIS2_PLACEMENT_3D('',#1688,#1365,#1366);
#1107=AXIS2_PLACEMENT_3D('',#1690,#1367,#1368);
#1108=AXIS2_PLACEMENT_3D('',#1691,#1369,#1370);
#1109=AXIS2_PLACEMENT_3D('',#1692,#1371,#1372);
#1110=AXIS2_PLACEMENT_3D('',#1695,#1375,#1376);
#1111=AXIS2_PLACEMENT_3D('',#1698,#1379,#1380);
#1112=AXIS2_PLACEMENT_3D('',#1701,#1381,#1382);
#1113=AXIS2_PLACEMENT_3D('',#1703,#1383,#1384);
#1114=AXIS2_PLACEMENT_3D('',#1705,#1385,#1386);
#1115=AXIS2_PLACEMENT_3D('',#1706,#1387,#1388);
#1116=AXIS2_PLACEMENT_3D('',#1707,#1389,#1390);
#1117=AXIS2_PLACEMENT_3D('',#1710,#1393,#1394);
#1118=AXIS2_PLACEMENT_3D('',#1713,#1395,#1396);
#1119=AXIS2_PLACEMENT_3D('',#1715,#1397,#1398);
#1120=AXIS2_PLACEMENT_3D('',#1717,#1399,#1400);
#1121=AXIS2_PLACEMENT_3D('',#1718,#1401,#1402);
#1122=AXIS2_PLACEMENT_3D('',#1719,#1403,#1404);
#1123=AXIS2_PLACEMENT_3D('',#1722,#1407,#1408);
#1124=AXIS2_PLACEMENT_3D('',#1725,#1411,#1412);
#1125=AXIS2_PLACEMENT_3D('',#1728,#1415,#1416);
#1126=AXIS2_PLACEMENT_3D('',#1731,#1419,#1420);
#1127=AXIS2_PLACEMENT_3D('',#1732,#1421,#1422);
#1128=AXIS2_PLACEMENT_3D('',#1738,#1426,#1427);
#1129=AXIS2_PLACEMENT_3D('',#1739,#1428,#1429);
#1130=AXIS2_PLACEMENT_3D('',#1742,#1430,#1431);
#1131=AXIS2_PLACEMENT_3D('',#1744,#1432,#1433);
#1132=AXIS2_PLACEMENT_3D('',#1745,#1434,#1435);
#1133=AXIS2_PLACEMENT_3D('',#1746,#1436,#1437);
#1134=AXIS2_PLACEMENT_3D('',#1749,#1438,#1439);
#1135=AXIS2_PLACEMENT_3D('',#1751,#1440,#1441);
#1136=AXIS2_PLACEMENT_3D('',#1752,#1442,#1443);
#1137=AXIS2_PLACEMENT_3D('',#1753,#1444,#1445);
#1138=AXIS2_PLACEMENT_3D('',#1755,#1446,#1447);
#1139=AXIS2_PLACEMENT_3D('',#1757,#1448,#1449);
#1140=AXIS2_PLACEMENT_3D('',#1758,#1450,#1451);
#1141=AXIS2_PLACEMENT_3D('',#1759,#1452,#1453);
#1142=AXIS2_PLACEMENT_3D('',#1762,#1456,#1457);
#1143=AXIS2_PLACEMENT_3D('',#1764,#1458,#1459);
#1144=AXIS2_PLACEMENT_3D('',#1766,#1460,#1461);
#1145=AXIS2_PLACEMENT_3D('',#1767,#1462,#1463);
#1146=AXIS2_PLACEMENT_3D('',#1768,#1464,#1465);
#1147=AXIS2_PLACEMENT_3D('',#1770,#1467,#1468);
#1148=AXIS2_PLACEMENT_3D('',#1773,#1471,#1472);
#1149=AXIS2_PLACEMENT_3D('',#1775,#1474,#1475);
#1150=AXIS2_PLACEMENT_3D('',#1777,#1477,#1478);
#1151=AXIS2_PLACEMENT_3D('',#1780,#1481,#1482);
#1152=AXIS2_PLACEMENT_3D('',#1783,#1485,#1486);
#1153=AXIS2_PLACEMENT_3D('',#1786,#1489,#1490);
#1154=AXIS2_PLACEMENT_3D('',#1787,#1491,#1492);
#1155=AXIS2_PLACEMENT_3D('',#1788,#1493,#1494);
#1156=AXIS2_PLACEMENT_3D('',#1789,#1495,#1496);
#1157=AXIS2_PLACEMENT_3D('',#1790,#1497,#1498);
#1158=AXIS2_PLACEMENT_3D('',#1792,#1500,#1501);
#1159=AXIS2_PLACEMENT_3D('',#1793,#1502,#1503);
#1160=DIRECTION('axis',(0.,0.,1.));
#1161=DIRECTION('refdir',(1.,0.,0.));
#1162=DIRECTION('center_axis',(0.,0.,1.));
#1163=DIRECTION('ref_axis',(1.,0.,0.));
#1164=DIRECTION('center_axis',(0.,0.,1.));
#1165=DIRECTION('ref_axis',(0.707106781186551,-0.707106781186544,0.));
#1166=DIRECTION('',(0.,1.,0.));
#1167=DIRECTION('center_axis',(0.,0.,1.));
#1168=DIRECTION('ref_axis',(0.707106781186554,0.707106781186541,0.));
#1169=DIRECTION('',(-1.,0.,0.));
#1170=DIRECTION('center_axis',(0.,0.,1.));
#1171=DIRECTION('ref_axis',(-0.707106781186548,0.707106781186548,0.));
#1172=DIRECTION('',(0.,-1.,0.));
#1173=DIRECTION('center_axis',(0.,0.,1.));
#1174=DIRECTION('ref_axis',(-0.707106781186548,-0.707106781186548,0.));
#1175=DIRECTION('',(1.,0.,0.));
#1176=DIRECTION('center_axis',(0.,0.,1.));
#1177=DIRECTION('ref_axis',(0.707106781186548,-0.707106781186548,0.));
#1178=DIRECTION('',(-2.61228946970625E-16,1.,0.));
#1179=DIRECTION('center_axis',(0.,0.,1.));
#1180=DIRECTION('ref_axis',(0.707106781186554,0.707106781186541,0.));
#1181=DIRECTION('',(-1.,0.,0.));
#1182=DIRECTION('center_axis',(0.,0.,1.));
#1183=DIRECTION('ref_axis',(-0.707106781186541,0.707106781186554,0.));
#1184=DIRECTION('',(3.09829681290741E-16,-1.,0.));
#1185=DIRECTION('center_axis',(0.,0.,1.));
#1186=DIRECTION('ref_axis',(-0.707106781186543,-0.707106781186552,0.));
#1187=DIRECTION('',(1.,0.,0.));
#1188=DIRECTION('',(1.1842378929335E-16,-1.,0.));
#1189=DIRECTION('',(-1.,0.,0.));
#1190=DIRECTION('',(-1.1842378929335E-16,1.,0.));
#1191=DIRECTION('',(1.,0.,0.));
#1192=DIRECTION('center_axis',(0.,0.,-1.));
#1193=DIRECTION('ref_axis',(-1.,0.,0.));
#1194=DIRECTION('center_axis',(0.,0.,-1.));
#1195=DIRECTION('ref_axis',(-1.,0.,0.));
#1196=DIRECTION('center_axis',(0.,0.,-1.));
#1197=DIRECTION('ref_axis',(-1.,0.,0.));
#1198=DIRECTION('center_axis',(0.,0.,-1.));
#1199=DIRECTION('ref_axis',(-1.,0.,0.));
#1200=DIRECTION('center_axis',(0.,0.,-1.));
#1201=DIRECTION('ref_axis',(-1.,0.,0.));
#1202=DIRECTION('center_axis',(0.,0.,1.));
#1203=DIRECTION('ref_axis',(1.,0.,0.));
#1204=DIRECTION('center_axis',(0.,-1.,0.));
#1205=DIRECTION('ref_axis',(1.,0.,0.));
#1206=DIRECTION('center_axis',(0.,0.,-1.));
#1207=DIRECTION('ref_axis',(1.,0.,0.));
#1208=DIRECTION('center_axis',(0.,0.,-1.));
#1209=DIRECTION('ref_axis',(1.,0.,0.));
#1210=DIRECTION('center_axis',(0.,0.,1.));
#1211=DIRECTION('ref_axis',(1.,0.,0.));
#1212=DIRECTION('center_axis',(0.,0.,-1.));
#1213=DIRECTION('ref_axis',(1.,0.,0.));
#1214=DIRECTION('center_axis',(0.,0.,1.));
#1215=DIRECTION('ref_axis',(1.,0.,0.));
#1216=DIRECTION('',(0.,0.,-1.));
#1217=DIRECTION('center_axis',(0.,0.,1.));
#1218=DIRECTION('ref_axis',(1.,0.,0.));
#1219=DIRECTION('center_axis',(0.,0.,1.));
#1220=DIRECTION('ref_axis',(1.,0.,0.));
#1221=DIRECTION('center_axis',(0.,-1.,0.));
#1222=DIRECTION('ref_axis',(-1.,0.,0.));
#1223=DIRECTION('center_axis',(0.,0.,1.));
#1224=DIRECTION('ref_axis',(1.,0.,0.));
#1225=DIRECTION('center_axis',(0.,0.,1.));
#1226=DIRECTION('ref_axis',(1.,0.,0.));
#1227=DIRECTION('',(0.,0.,-1.));
#1228=DIRECTION('center_axis',(0.,0.,-1.));
#1229=DIRECTION('ref_axis',(1.,0.,0.));
#1230=DIRECTION('center_axis',(0.,0.,-1.));
#1231=DIRECTION('ref_axis',(1.,0.,0.));
#1232=DIRECTION('center_axis',(0.,0.,-1.));
#1233=DIRECTION('ref_axis',(-1.,0.,0.));
#1234=DIRECTION('center_axis',(0.,-1.,0.));
#1235=DIRECTION('ref_axis',(1.,0.,0.));
#1236=DIRECTION('center_axis',(0.,0.,1.));
#1237=DIRECTION('ref_axis',(1.,0.,0.));
#1238=DIRECTION('center_axis',(0.,0.,1.));
#1239=DIRECTION('ref_axis',(1.,0.,0.));
#1240=DIRECTION('',(-1.,0.,0.));
#1241=DIRECTION('',(1.1842378929335E-16,-1.,0.));
#1242=DIRECTION('',(1.,0.,0.));
#1243=DIRECTION('',(-1.1842378929335E-16,1.,0.));
#1244=DIRECTION('center_axis',(0.,0.,1.));
#1245=DIRECTION('ref_axis',(1.,0.,0.));
#1246=DIRECTION('center_axis',(0.,0.,1.));
#1247=DIRECTION('ref_axis',(1.,0.,0.));
#1248=DIRECTION('center_axis',(0.,0.,-1.));
#1249=DIRECTION('ref_axis',(-1.,0.,0.));
#1250=DIRECTION('center_axis',(0.,0.,1.));
#1251=DIRECTION('ref_axis',(1.,0.,0.));
#1252=DIRECTION('center_axis',(0.,-1.,0.));
#1253=DIRECTION('ref_axis',(1.,0.,0.));
#1254=DIRECTION('center_axis',(0.,0.,-1.));
#1255=DIRECTION('ref_axis',(1.,0.,0.));
#1256=DIRECTION('center_axis',(0.,0.,-1.));
#1257=DIRECTION('ref_axis',(1.,0.,0.));
#1258=DIRECTION('center_axis',(0.,0.,1.));
#1259=DIRECTION('ref_axis',(1.,0.,0.));
#1260=DIRECTION('center_axis',(0.,0.,-1.));
#1261=DIRECTION('ref_axis',(1.,0.,0.));
#1262=DIRECTION('center_axis',(0.,0.,1.));
#1263=DIRECTION('ref_axis',(1.,0.,0.));
#1264=DIRECTION('',(0.,0.,-1.));
#1265=DIRECTION('center_axis',(0.,0.,1.));
#1266=DIRECTION('ref_axis',(1.,0.,0.));
#1267=DIRECTION('center_axis',(0.,0.,1.));
#1268=DIRECTION('ref_axis',(1.,0.,0.));
#1269=DIRECTION('center_axis',(0.,-1.,0.));
#1270=DIRECTION('ref_axis',(-1.,0.,0.));
#1271=DIRECTION('center_axis',(0.,0.,1.));
#1272=DIRECTION('ref_axis',(1.,0.,0.));
#1273=DIRECTION('center_axis',(0.,0.,1.));
#1274=DIRECTION('ref_axis',(1.,0.,0.));
#1275=DIRECTION('',(0.,0.,-1.));
#1276=DIRECTION('center_axis',(0.,0.,-1.));
#1277=DIRECTION('ref_axis',(1.,0.,0.));
#1278=DIRECTION('center_axis',(0.,0.,-1.));
#1279=DIRECTION('ref_axis',(1.,0.,0.));
#1280=DIRECTION('center_axis',(0.,0.,-1.));
#1281=DIRECTION('ref_axis',(-1.,0.,0.));
#1282=DIRECTION('center_axis',(0.,-1.,0.));
#1283=DIRECTION('ref_axis',(1.,0.,0.));
#1284=DIRECTION('center_axis',(0.,0.,-1.));
#1285=DIRECTION('ref_axis',(-1.,0.,0.));
#1286=DIRECTION('center_axis',(0.,0.,-1.));
#1287=DIRECTION('ref_axis',(1.,0.,0.));
#1288=DIRECTION('center_axis',(0.,-1.,0.));
#1289=DIRECTION('ref_axis',(1.,0.,0.));
#1290=DIRECTION('center_axis',(0.,0.,-1.));
#1291=DIRECTION('ref_axis',(1.,0.,0.));
#1292=DIRECTION('center_axis',(0.,0.,1.));
#1293=DIRECTION('ref_axis',(1.,0.,0.));
#1294=DIRECTION('center_axis',(0.,0.,1.));
#1295=DIRECTION('ref_axis',(1.,0.,0.));
#1296=DIRECTION('',(0.,0.,-1.));
#1297=DIRECTION('center_axis',(0.,0.,-1.));
#1298=DIRECTION('ref_axis',(-1.,0.,0.));
#1299=DIRECTION('center_axis',(0.,0.,1.));
#1300=DIRECTION('ref_axis',(1.,0.,0.));
#1301=DIRECTION('center_axis',(0.,-1.,0.));
#1302=DIRECTION('ref_axis',(1.,0.,0.));
#1303=DIRECTION('center_axis',(0.,0.,-1.));
#1304=DIRECTION('ref_axis',(1.,0.,0.));
#1305=DIRECTION('center_axis',(0.,0.,-1.));
#1306=DIRECTION('ref_axis',(1.,0.,0.));
#1307=DIRECTION('center_axis',(0.,0.,1.));
#1308=DIRECTION('ref_axis',(1.,0.,0.));
#1309=DIRECTION('center_axis',(0.,0.,-1.));
#1310=DIRECTION('ref_axis',(1.,0.,0.));
#1311=DIRECTION('center_axis',(0.,0.,1.));
#1312=DIRECTION('ref_axis',(1.,0.,0.));
#1313=DIRECTION('',(0.,0.,-1.));
#1314=DIRECTION('center_axis',(0.,0.,1.));
#1315=DIRECTION('ref_axis',(1.,0.,0.));
#1316=DIRECTION('center_axis',(0.,0.,1.));
#1317=DIRECTION('ref_axis',(1.,0.,0.));
#1318=DIRECTION('center_axis',(0.,-1.,0.));
#1319=DIRECTION('ref_axis',(-1.,0.,0.));
#1320=DIRECTION('center_axis',(0.,1.,0.));
#1321=DIRECTION('ref_axis',(-1.,0.,0.));
#1322=DIRECTION('',(0.,0.,1.));
#1323=DIRECTION('',(0.,0.,1.));
#1324=DIRECTION('center_axis',(1.,1.1842378929335E-16,0.));
#1325=DIRECTION('ref_axis',(-1.1842378929335E-16,1.,0.));
#1326=DIRECTION('',(0.,0.,1.));
#1327=DIRECTION('center_axis',(0.,0.,-1.));
#1328=DIRECTION('ref_axis',(-1.,0.,0.));
#1329=DIRECTION('',(0.,0.,-1.));
#1330=DIRECTION('center_axis',(0.,0.,1.));
#1331=DIRECTION('ref_axis',(-1.,0.,0.));
#1332=DIRECTION('center_axis',(0.,0.,-1.));
#1333=DIRECTION('ref_axis',(-1.,0.,0.));
#1334=DIRECTION('',(0.,0.,-1.));
#1335=DIRECTION('center_axis',(0.,0.,1.));
#1336=DIRECTION('ref_axis',(-1.,0.,0.));
#1337=DIRECTION('center_axis',(0.,0.,-1.));
#1338=DIRECTION('ref_axis',(-1.,0.,0.));
#1339=DIRECTION('',(0.,0.,-1.));
#1340=DIRECTION('center_axis',(0.,0.,1.));
#1341=DIRECTION('ref_axis',(-1.,0.,0.));
#1342=DIRECTION('center_axis',(0.,0.,-1.));
#1343=DIRECTION('ref_axis',(-1.,0.,0.));
#1344=DIRECTION('',(0.,0.,-1.));
#1345=DIRECTION('center_axis',(0.,0.,1.));
#1346=DIRECTION('ref_axis',(-1.,0.,0.));
#1347=DIRECTION('center_axis',(0.,1.,0.));
#1348=DIRECTION('ref_axis',(0.,0.,1.));
#1349=DIRECTION('center_axis',(0.,1.,8.88178419700125E-15));
#1350=DIRECTION('ref_axis',(-1.,0.,0.));
#1351=DIRECTION('center_axis',(0.,0.,1.));
#1352=DIRECTION('ref_axis',(0.,-1.,0.));
#1353=DIRECTION('center_axis',(0.,-1.,0.));
#1354=DIRECTION('ref_axis',(-0.707106781186549,0.,-0.707106781186546));
#1355=DIRECTION('center_axis',(1.,0.,0.));
#1356=DIRECTION('ref_axis',(0.,0.,1.));
#1357=DIRECTION('center_axis',(0.,0.,1.));
#1358=DIRECTION('ref_axis',(0.707106781186551,-0.707106781186544,0.));
#1359=DIRECTION('',(0.,0.,-1.));
#1360=DIRECTION('',(0.,0.,1.));
#1361=DIRECTION('center_axis',(0.,1.,0.));
#1362=DIRECTION('ref_axis',(0.,0.,1.));
#1363=DIRECTION('center_axis',(0.,1.,0.));
#1364=DIRECTION('ref_axis',(-0.707106781186547,0.,-0.707106781186548));
#1365=DIRECTION('center_axis',(0.,0.,1.));
#1366=DIRECTION('ref_axis',(1.,0.,0.));
#1367=DIRECTION('center_axis',(-1.77635683940025E-14,-1.,0.));
#1368=DIRECTION('ref_axis',(0.,0.,-1.));
#1369=DIRECTION('center_axis',(1.,0.,0.));
#1370=DIRECTION('ref_axis',(0.,1.,0.));
#1371=DIRECTION('center_axis',(0.,0.,-1.));
#1372=DIRECTION('ref_axis',(0.707106781186554,0.707106781186541,0.));
#1373=DIRECTION('',(0.,0.,-1.));
#1374=DIRECTION('',(0.,0.,1.));
#1375=DIRECTION('center_axis',(0.,1.,0.));
#1376=DIRECTION('ref_axis',(-0.707106781186548,0.,-0.707106781186547));
#1377=DIRECTION('',(0.,-1.,0.));
#1378=DIRECTION('',(0.,1.,0.));
#1379=DIRECTION('center_axis',(0.,-1.,0.));
#1380=DIRECTION('ref_axis',(0.,0.,-1.));
#1381=DIRECTION('center_axis',(0.,-1.,0.));
#1382=DIRECTION('ref_axis',(0.707106781186547,0.,-0.707106781186548));
#1383=DIRECTION('center_axis',(0.,0.,1.));
#1384=DIRECTION('ref_axis',(-1.,0.,0.));
#1385=DIRECTION('center_axis',(0.,1.,0.));
#1386=DIRECTION('ref_axis',(0.,0.,-1.));
#1387=DIRECTION('center_axis',(-1.,0.,0.));
#1388=DIRECTION('ref_axis',(0.,-1.,0.));
#1389=DIRECTION('center_axis',(0.,0.,-1.));
#1390=DIRECTION('ref_axis',(-0.707106781186543,-0.707106781186552,0.));
#1391=DIRECTION('',(0.,0.,-1.));
#1392=DIRECTION('',(0.,0.,1.));
#1393=DIRECTION('center_axis',(0.,-1.,0.));
#1394=DIRECTION('ref_axis',(0.,0.,-1.));
#1395=DIRECTION('center_axis',(0.,-1.,0.));
#1396=DIRECTION('ref_axis',(1.,0.,0.));
#1397=DIRECTION('center_axis',(0.,0.,1.));
#1398=DIRECTION('ref_axis',(0.,1.,0.));
#1399=DIRECTION('center_axis',(0.,1.,0.));
#1400=DIRECTION('ref_axis',(0.707106781186547,0.,-0.707106781186548));
#1401=DIRECTION('center_axis',(-1.,0.,0.));
#1402=DIRECTION('ref_axis',(0.,0.,1.));
#1403=DIRECTION('center_axis',(0.,0.,1.));
#1404=DIRECTION('ref_axis',(-0.707106781186541,0.707106781186554,0.));
#1405=DIRECTION('',(0.,0.,-1.));
#1406=DIRECTION('',(0.,0.,1.));
#1407=DIRECTION('center_axis',(1.,0.,0.));
#1408=DIRECTION('ref_axis',(0.,0.707106781186553,0.707106781186542));
#1409=DIRECTION('',(-1.,0.,0.));
#1410=DIRECTION('',(1.,0.,0.));
#1411=DIRECTION('center_axis',(3.09829681290741E-16,-1.,0.));
#1412=DIRECTION('ref_axis',(0.707106781186547,0.,-0.707106781186548));
#1413=DIRECTION('',(-3.09829681290741E-16,1.,0.));
#1414=DIRECTION('',(3.09829681290741E-16,-1.,0.));
#1415=DIRECTION('center_axis',(-1.,0.,0.));
#1416=DIRECTION('ref_axis',(0.,-0.707106781186553,0.707106781186542));
#1417=DIRECTION('',(1.,0.,0.));
#1418=DIRECTION('',(-1.,0.,0.));
#1419=DIRECTION('center_axis',(-1.,0.,0.));
#1420=DIRECTION('ref_axis',(0.,1.,0.));
#1421=DIRECTION('center_axis',(0.,1.,0.));
#1422=DIRECTION('ref_axis',(-1.,0.,0.));
#1423=DIRECTION('',(0.,0.,1.));
#1424=DIRECTION('',(1.,0.,0.));
#1425=DIRECTION('',(0.,0.,-1.));
#1426=DIRECTION('center_axis',(0.,0.,-1.));
#1427=DIRECTION('ref_axis',(-1.,0.,0.));
#1428=DIRECTION('center_axis',(-0.408248290463856,-0.816496580927727,0.408248290463867));
#1429=DIRECTION('ref_axis',(0.577350269189611,-0.577350269189626,-0.57735026918964));
#1430=DIRECTION('center_axis',(0.,0.,-1.));
#1431=DIRECTION('ref_axis',(0.,-1.,0.));
#1432=DIRECTION('center_axis',(1.,-1.77635683940026E-14,0.));
#1433=DIRECTION('ref_axis',(0.,0.,-1.));
#1434=DIRECTION('center_axis',(0.,-1.,1.77635683940025E-14));
#1435=DIRECTION('ref_axis',(1.,0.,0.));
#1436=DIRECTION('center_axis',(0.408248290463858,-0.816496580927731,0.408248290463857));
#1437=DIRECTION('ref_axis',(-0.577350269189623,-0.577350269189623,-0.577350269189631));
#1438=DIRECTION('center_axis',(0.,0.,-1.));
#1439=DIRECTION('ref_axis',(-1.,0.,0.));
#1440=DIRECTION('center_axis',(-1.77635683940026E-14,-1.,0.));
#1441=DIRECTION('ref_axis',(0.,0.,-1.));
#1442=DIRECTION('center_axis',(-1.,0.,0.));
#1443=DIRECTION('ref_axis',(0.,-1.,0.));
#1444=DIRECTION('center_axis',(-0.816496580927733,0.408248290463859,-0.408248290463853));
#1445=DIRECTION('ref_axis',(0.577350269189622,0.577350269189637,-0.577350269189618));
#1446=DIRECTION('center_axis',(0.,0.,-1.));
#1447=DIRECTION('ref_axis',(1.,0.,0.));
#1448=DIRECTION('center_axis',(0.,1.,0.));
#1449=DIRECTION('ref_axis',(0.,0.,-1.));
#1450=DIRECTION('center_axis',(1.,0.,-8.88178419700125E-15));
#1451=DIRECTION('ref_axis',(0.,1.,0.));
#1452=DIRECTION('center_axis',(2.61228946970625E-16,-1.,0.));
#1453=DIRECTION('ref_axis',(0.707106781186546,0.,-0.707106781186549));
#1454=DIRECTION('',(-2.61228946970625E-16,1.,0.));
#1455=DIRECTION('',(2.61228946970625E-16,-1.,0.));
#1456=DIRECTION('center_axis',(-0.408248290463857,-0.816496580927729,-0.408248290463862));
#1457=DIRECTION('ref_axis',(-0.577350269189622,0.577350269189622,-0.577350269189633));
#1458=DIRECTION('center_axis',(0.,0.,-1.));
#1459=DIRECTION('ref_axis',(0.,1.,0.));
#1460=DIRECTION('center_axis',(-1.,0.,0.));
#1461=DIRECTION('ref_axis',(0.,0.,-1.));
#1462=DIRECTION('center_axis',(0.,1.,1.77635683940025E-14));
#1463=DIRECTION('ref_axis',(-1.,0.,0.));
#1464=DIRECTION('center_axis',(1.,0.,0.));
#1465=DIRECTION('ref_axis',(0.,0.70710678118654,-0.707106781186555));
#1466=DIRECTION('',(-1.,0.,0.));
#1467=DIRECTION('center_axis',(0.,1.,0.));
#1468=DIRECTION('ref_axis',(-0.707106781186553,0.,-0.707106781186543));
#1469=DIRECTION('',(0.,-1.,0.));
#1470=DIRECTION('',(0.,1.,0.));
#1471=DIRECTION('center_axis',(0.,0.,1.));
#1472=DIRECTION('ref_axis',(-0.707106781186548,0.707106781186548,0.));
#1473=DIRECTION('',(0.,0.,1.));
#1474=DIRECTION('center_axis',(0.,0.,1.));
#1475=DIRECTION('ref_axis',(0.707106781186554,0.707106781186541,0.));
#1476=DIRECTION('',(0.,0.,-1.));
#1477=DIRECTION('center_axis',(-1.,0.,0.));
#1478=DIRECTION('ref_axis',(0.,-0.70710678118654,-0.707106781186555));
#1479=DIRECTION('',(1.,0.,0.));
#1480=DIRECTION('',(-1.,0.,0.));
#1481=DIRECTION('center_axis',(0.,0.,1.));
#1482=DIRECTION('ref_axis',(-0.707106781186548,-0.707106781186548,0.));
#1483=DIRECTION('',(0.,0.,-1.));
#1484=DIRECTION('',(0.,0.,1.));
#1485=DIRECTION('center_axis',(0.,0.,1.));
#1486=DIRECTION('ref_axis',(0.707106781186548,-0.707106781186548,0.));
#1487=DIRECTION('',(0.,0.,-1.));
#1488=DIRECTION('',(0.,0.,1.));
#1489=DIRECTION('center_axis',(-1.,0.,0.));
#1490=DIRECTION('ref_axis',(0.,-1.,0.));
#1491=DIRECTION('center_axis',(0.,-1.,0.));
#1492=DIRECTION('ref_axis',(1.,0.,0.));
#1493=DIRECTION('center_axis',(0.,0.,1.));
#1494=DIRECTION('ref_axis',(1.,0.,0.));
#1495=DIRECTION('center_axis',(1.,3.09829681290741E-16,0.));
#1496=DIRECTION('ref_axis',(3.09829681290741E-16,-1.,0.));
#1497=DIRECTION('center_axis',(0.,-1.,0.));
#1498=DIRECTION('ref_axis',(1.,0.,0.));
#1499=DIRECTION('',(0.,0.,1.));
#1500=DIRECTION('center_axis',(1.,2.61228946970625E-16,0.));
#1501=DIRECTION('ref_axis',(-2.61228946970625E-16,1.,0.));
#1502=DIRECTION('center_axis',(-1.,-1.1842378929335E-16,0.));
#1503=DIRECTION('ref_axis',(1.1842378929335E-16,-1.,0.));
#1504=CARTESIAN_POINT('',(0.,0.,0.));
#1505=CARTESIAN_POINT('Origin',(-0.472000000000001,-0.327000000000002,11.));
#1506=CARTESIAN_POINT('',(-9.92200000000001,37.173,11.));
#1507=CARTESIAN_POINT('',(-9.42200000000001,37.673,11.));
#1508=CARTESIAN_POINT('Origin',(-9.92200000000001,37.673,11.));
#1509=CARTESIAN_POINT('',(-9.42200000000001,41.673,11.));
#1510=CARTESIAN_POINT('',(-9.42200000000001,18.423,11.));
#1511=CARTESIAN_POINT('',(-9.922,42.173,11.));
#1512=CARTESIAN_POINT('Origin',(-9.92200000000001,41.673,11.));
#1513=CARTESIAN_POINT('',(-39.972,42.173,11.));
#1514=CARTESIAN_POINT('',(-40.472,42.173,11.));
#1515=CARTESIAN_POINT('',(-40.472,41.673,11.));
#1516=CARTESIAN_POINT('Origin',(-39.972,41.673,11.));
#1517=CARTESIAN_POINT('',(-40.472,-42.327,11.));
#1518=CARTESIAN_POINT('',(-40.472,-42.827,11.));
#1519=CARTESIAN_POINT('',(-39.972,-42.827,11.));
#1520=CARTESIAN_POINT('Origin',(-39.972,-42.327,11.));
#1521=CARTESIAN_POINT('',(39.028,-42.827,11.));
#1522=CARTESIAN_POINT('',(39.528,-42.827,11.));
#1523=CARTESIAN_POINT('',(39.528,-42.327,11.));
#1524=CARTESIAN_POINT('Origin',(39.028,-42.327,11.));
#1525=CARTESIAN_POINT('',(39.528,41.673,11.));
#1526=CARTESIAN_POINT('',(39.528,42.173,11.));
#1527=CARTESIAN_POINT('',(39.028,42.173,11.));
#1528=CARTESIAN_POINT('Origin',(39.028,41.673,11.));
#1529=CARTESIAN_POINT('',(8.97799999999999,42.173,11.));
#1530=CARTESIAN_POINT('',(-40.472,42.173,11.));
#1531=CARTESIAN_POINT('',(8.47799999999999,41.673,11.));
#1532=CARTESIAN_POINT('Origin',(8.978,41.673,11.));
#1533=CARTESIAN_POINT('',(8.478,37.673,11.));
#1534=CARTESIAN_POINT('',(8.47800000000001,20.923,11.));
#1535=CARTESIAN_POINT('',(8.978,37.173,11.));
#1536=CARTESIAN_POINT('Origin',(8.978,37.673,11.));
#1537=CARTESIAN_POINT('',(34.528,37.173,11.));
#1538=CARTESIAN_POINT('',(-35.472,37.173,11.));
#1539=CARTESIAN_POINT('',(34.528,-37.827,11.));
#1540=CARTESIAN_POINT('',(34.528,37.173,11.));
#1541=CARTESIAN_POINT('',(-35.472,-37.827,11.));
#1542=CARTESIAN_POINT('',(34.528,-37.827,11.));
#1543=CARTESIAN_POINT('',(-35.472,37.173,11.));
#1544=CARTESIAN_POINT('',(-35.472,-37.827,11.));
#1545=CARTESIAN_POINT('',(-35.472,37.173,11.));
#1546=CARTESIAN_POINT('',(-36.522,-40.327,11.));
#1547=CARTESIAN_POINT('Origin',(-37.972,-40.327,11.));
#1548=CARTESIAN_POINT('',(38.478,-40.327,11.));
#1549=CARTESIAN_POINT('Origin',(37.028,-40.327,11.));
#1550=CARTESIAN_POINT('',(-36.522,39.673,11.));
#1551=CARTESIAN_POINT('Origin',(-37.972,39.673,11.));
#1552=CARTESIAN_POINT('',(38.478,39.673,11.));
#1553=CARTESIAN_POINT('Origin',(37.028,39.673,11.));
#1554=CARTESIAN_POINT('Origin',(28.537,-32.,3.71));
#1555=CARTESIAN_POINT('',(30.077,-32.,3.8));
#1556=CARTESIAN_POINT('Origin',(28.537,-32.,3.8));
#1557=CARTESIAN_POINT('',(29.987,-32.,3.71));
#1558=CARTESIAN_POINT('Origin',(30.077,-32.,3.71));
#1559=CARTESIAN_POINT('',(27.087,-32.,3.71));
#1560=CARTESIAN_POINT('Origin',(28.537,-32.,3.71));
#1561=CARTESIAN_POINT('Origin',(28.537,-32.,3.71));
#1562=CARTESIAN_POINT('Origin',(28.537,-32.,3.8));
#1563=CARTESIAN_POINT('',(26.677,-32.,3.8));
#1564=CARTESIAN_POINT('Origin',(28.537,-32.,3.8));
#1565=CARTESIAN_POINT('Origin',(28.537,-32.,0.));
#1566=CARTESIAN_POINT('',(27.087,-32.,0.));
#1567=CARTESIAN_POINT('',(27.087,-32.,0.));
#1568=CARTESIAN_POINT('Origin',(28.537,-32.,0.));
#1569=CARTESIAN_POINT('Origin',(28.537,-32.,3.71));
#1570=CARTESIAN_POINT('',(26.587,-32.,3.71));
#1571=CARTESIAN_POINT('Origin',(26.677,-32.,3.71));
#1572=CARTESIAN_POINT('Origin',(28.537,-32.,3.71));
#1573=CARTESIAN_POINT('Origin',(28.537,-32.,0.));
#1574=CARTESIAN_POINT('',(26.587,-32.,3.09));
#1575=CARTESIAN_POINT('',(26.587,-32.,0.));
#1576=CARTESIAN_POINT('',(30.487,-32.,3.09));
#1577=CARTESIAN_POINT('Origin',(28.537,-32.,3.09));
#1578=CARTESIAN_POINT('Origin',(28.537,-32.,3.09));
#1579=CARTESIAN_POINT('Origin',(28.537,-32.,3.09));
#1580=CARTESIAN_POINT('',(30.577,-32.,3.));
#1581=CARTESIAN_POINT('Origin',(30.577,-32.,3.09));
#1582=CARTESIAN_POINT('Origin',(28.537,-32.,3.));
#1583=CARTESIAN_POINT('Origin',(-0.472000000000001,-0.326999999999997,3.));
#1584=CARTESIAN_POINT('',(34.528,-37.827,3.));
#1585=CARTESIAN_POINT('',(-35.472,-37.827,3.));
#1586=CARTESIAN_POINT('',(17.028,-37.827,3.));
#1587=CARTESIAN_POINT('',(34.528,37.173,3.));
#1588=CARTESIAN_POINT('',(34.528,18.423,3.));
#1589=CARTESIAN_POINT('',(-35.472,37.173,3.));
#1590=CARTESIAN_POINT('',(-17.972,37.173,3.));
#1591=CARTESIAN_POINT('',(-35.472,-19.077,3.));
#1592=CARTESIAN_POINT('',(-27.441,31.3,3.));
#1593=CARTESIAN_POINT('Origin',(-29.481,31.3,3.));
#1594=CARTESIAN_POINT('',(30.559,31.3,3.));
#1595=CARTESIAN_POINT('Origin',(28.519,31.3,3.));
#1596=CARTESIAN_POINT('Origin',(-29.481,31.3,3.71));
#1597=CARTESIAN_POINT('',(-27.941,31.3,3.8));
#1598=CARTESIAN_POINT('Origin',(-29.481,31.3,3.8));
#1599=CARTESIAN_POINT('',(-28.031,31.3,3.71));
#1600=CARTESIAN_POINT('Origin',(-27.941,31.3,3.71));
#1601=CARTESIAN_POINT('',(-30.931,31.3,3.71));
#1602=CARTESIAN_POINT('Origin',(-29.481,31.3,3.71));
#1603=CARTESIAN_POINT('Origin',(-29.481,31.3,3.71));
#1604=CARTESIAN_POINT('Origin',(-29.481,31.3,3.8));
#1605=CARTESIAN_POINT('',(-31.341,31.3,3.8));
#1606=CARTESIAN_POINT('Origin',(-29.481,31.3,3.8));
#1607=CARTESIAN_POINT('Origin',(-29.481,31.3,0.));
#1608=CARTESIAN_POINT('',(-30.931,31.3,0.));
#1609=CARTESIAN_POINT('',(-30.931,31.3,0.));
#1610=CARTESIAN_POINT('Origin',(-29.481,31.3,0.));
#1611=CARTESIAN_POINT('Origin',(-29.481,31.3,3.71));
#1612=CARTESIAN_POINT('',(-31.431,31.3,3.71));
#1613=CARTESIAN_POINT('Origin',(-31.341,31.3,3.71));
#1614=CARTESIAN_POINT('Origin',(-29.481,31.3,3.71));
#1615=CARTESIAN_POINT('Origin',(-29.481,31.3,0.));
#1616=CARTESIAN_POINT('',(-31.431,31.3,3.09));
#1617=CARTESIAN_POINT('',(-31.431,31.3,0.));
#1618=CARTESIAN_POINT('',(-27.531,31.3,3.09));
#1619=CARTESIAN_POINT('Origin',(-29.481,31.3,3.09));
#1620=CARTESIAN_POINT('Origin',(-29.481,31.3,3.09));
#1621=CARTESIAN_POINT('Origin',(-29.481,31.3,3.09));
#1622=CARTESIAN_POINT('Origin',(-27.441,31.3,3.09));
#1623=CARTESIAN_POINT('Origin',(28.519,31.3,3.09));
#1624=CARTESIAN_POINT('',(26.569,31.3,3.09));
#1625=CARTESIAN_POINT('',(30.469,31.3,3.09));
#1626=CARTESIAN_POINT('Origin',(28.519,31.3,3.09));
#1627=CARTESIAN_POINT('Origin',(30.559,31.3,3.09));
#1628=CARTESIAN_POINT('Origin',(28.519,31.3,3.09));
#1629=CARTESIAN_POINT('Origin',(28.519,31.3,0.));
#1630=CARTESIAN_POINT('',(26.569,31.3,3.71));
#1631=CARTESIAN_POINT('Origin',(28.519,31.3,3.71));
#1632=CARTESIAN_POINT('',(26.569,31.3,0.));
#1633=CARTESIAN_POINT('Origin',(28.519,31.3,3.71));
#1634=CARTESIAN_POINT('',(30.059,31.3,3.8));
#1635=CARTESIAN_POINT('Origin',(28.519,31.3,3.8));
#1636=CARTESIAN_POINT('',(29.969,31.3,3.71));
#1637=CARTESIAN_POINT('Origin',(30.059,31.3,3.71));
#1638=CARTESIAN_POINT('',(27.069,31.3,3.71));
#1639=CARTESIAN_POINT('Origin',(28.519,31.3,3.71));
#1640=CARTESIAN_POINT('Origin',(28.519,31.3,3.71));
#1641=CARTESIAN_POINT('Origin',(28.519,31.3,3.8));
#1642=CARTESIAN_POINT('',(26.659,31.3,3.8));
#1643=CARTESIAN_POINT('Origin',(28.519,31.3,3.8));
#1644=CARTESIAN_POINT('Origin',(28.519,31.3,0.));
#1645=CARTESIAN_POINT('',(27.069,31.3,0.));
#1646=CARTESIAN_POINT('',(27.069,31.3,0.));
#1647=CARTESIAN_POINT('Origin',(28.519,31.3,0.));
#1648=CARTESIAN_POINT('Origin',(28.519,31.3,3.71));
#1649=CARTESIAN_POINT('Origin',(26.659,31.3,3.71));
#1650=CARTESIAN_POINT('Origin',(34.528,-37.827,0.));
#1651=CARTESIAN_POINT('',(-35.472,-37.827,0.));
#1652=CARTESIAN_POINT('',(34.528,-37.827,0.));
#1653=CARTESIAN_POINT('Origin',(-35.472,-37.827,0.));
#1654=CARTESIAN_POINT('',(-35.472,37.173,0.));
#1655=CARTESIAN_POINT('Origin',(-37.972,-40.327,10.));
#1656=CARTESIAN_POINT('',(-36.522,-40.327,0.));
#1657=CARTESIAN_POINT('',(-36.522,-40.327,10.));
#1658=CARTESIAN_POINT('Origin',(-37.972,-40.327,0.));
#1659=CARTESIAN_POINT('Origin',(37.028,-40.327,10.));
#1660=CARTESIAN_POINT('',(38.478,-40.327,0.));
#1661=CARTESIAN_POINT('',(38.478,-40.327,10.));
#1662=CARTESIAN_POINT('Origin',(37.028,-40.327,0.));
#1663=CARTESIAN_POINT('Origin',(-37.972,39.673,10.));
#1664=CARTESIAN_POINT('',(-36.522,39.673,0.));
#1665=CARTESIAN_POINT('',(-36.522,39.673,10.));
#1666=CARTESIAN_POINT('Origin',(-37.972,39.673,0.));
#1667=CARTESIAN_POINT('Origin',(37.028,39.673,10.));
#1668=CARTESIAN_POINT('',(38.478,39.673,0.));
#1669=CARTESIAN_POINT('',(38.478,39.673,10.));
#1670=CARTESIAN_POINT('Origin',(37.028,39.673,0.));
#1671=CARTESIAN_POINT('Origin',(-8.92200000000001,37.673,4.5));
#1672=CARTESIAN_POINT('',(-9.42200000000001,37.673,4.5));
#1673=CARTESIAN_POINT('',(-8.92200000000001,37.673,4.));
#1674=CARTESIAN_POINT('Origin',(-8.92200000000001,37.673,4.5));
#1675=CARTESIAN_POINT('',(-9.92200000000001,37.173,4.5));
#1676=CARTESIAN_POINT('Origin',(-9.92200000000001,37.673,4.5));
#1677=CARTESIAN_POINT('',(-8.92200000000001,37.173,3.5));
#1678=CARTESIAN_POINT('Origin',(-8.92200000000001,37.173,4.5));
#1679=CARTESIAN_POINT('Origin',(-8.92200000000001,37.673,3.5));
#1680=CARTESIAN_POINT('Origin',(-9.92200000000001,37.673,5.));
#1681=CARTESIAN_POINT('',(-9.92200000000001,37.173,5.));
#1682=CARTESIAN_POINT('',(-9.42200000000001,37.673,5.));
#1683=CARTESIAN_POINT('Origin',(-8.92200000000001,41.673,4.5));
#1684=CARTESIAN_POINT('',(-8.92200000000001,42.173,3.5));
#1685=CARTESIAN_POINT('',(-9.92200000000001,42.173,4.5));
#1686=CARTESIAN_POINT('Origin',(-8.92200000000001,42.173,4.5));
#1687=CARTESIAN_POINT('',(-9.42200000000001,41.673,4.5));
#1688=CARTESIAN_POINT('Origin',(-9.92200000000001,41.673,4.5));
#1689=CARTESIAN_POINT('',(-8.92200000000001,41.673,4.));
#1690=CARTESIAN_POINT('Origin',(-8.92200000000001,41.673,4.5));
#1691=CARTESIAN_POINT('Origin',(-8.92200000000001,41.673,3.5));
#1692=CARTESIAN_POINT('Origin',(-9.92200000000001,41.673,5.));
#1693=CARTESIAN_POINT('',(-9.42200000000001,41.673,5.));
#1694=CARTESIAN_POINT('',(-9.92200000000001,42.173,5.));
#1695=CARTESIAN_POINT('Origin',(-8.92200000000001,38.423,4.5));
#1696=CARTESIAN_POINT('',(-9.42200000000001,38.423,4.5));
#1697=CARTESIAN_POINT('',(-8.92200000000001,38.423,4.));
#1698=CARTESIAN_POINT('Origin',(7.978,37.673,4.5));
#1699=CARTESIAN_POINT('',(7.978,37.173,3.5));
#1700=CARTESIAN_POINT('',(8.978,37.173,4.5));
#1701=CARTESIAN_POINT('Origin',(7.978,37.173,4.5));
#1702=CARTESIAN_POINT('',(8.478,37.673,4.5));
#1703=CARTESIAN_POINT('Origin',(8.978,37.673,4.5));
#1704=CARTESIAN_POINT('',(7.978,37.673,4.));
#1705=CARTESIAN_POINT('Origin',(7.978,37.673,4.5));
#1706=CARTESIAN_POINT('Origin',(7.978,37.673,3.5));
#1707=CARTESIAN_POINT('Origin',(8.978,37.673,5.));
#1708=CARTESIAN_POINT('',(8.478,37.673,5.));
#1709=CARTESIAN_POINT('',(8.978,37.173,5.));
#1710=CARTESIAN_POINT('Origin',(7.978,41.673,4.5));
#1711=CARTESIAN_POINT('',(8.478,41.673,4.5));
#1712=CARTESIAN_POINT('',(7.978,41.673,4.));
#1713=CARTESIAN_POINT('Origin',(7.978,41.673,4.5));
#1714=CARTESIAN_POINT('',(8.978,42.173,4.5));
#1715=CARTESIAN_POINT('Origin',(8.978,41.673,4.5));
#1716=CARTESIAN_POINT('',(7.978,42.173,3.5));
#1717=CARTESIAN_POINT('Origin',(7.978,42.173,4.5));
#1718=CARTESIAN_POINT('Origin',(7.978,41.673,3.5));
#1719=CARTESIAN_POINT('Origin',(8.978,41.673,5.));
#1720=CARTESIAN_POINT('',(8.978,42.173,5.));
#1721=CARTESIAN_POINT('',(8.478,41.673,5.));
#1722=CARTESIAN_POINT('Origin',(19.528,41.673,3.5));
#1723=CARTESIAN_POINT('',(19.528,42.173,3.5));
#1724=CARTESIAN_POINT('',(19.528,41.673,4.));
#1725=CARTESIAN_POINT('Origin',(7.978,40.923,4.5));
#1726=CARTESIAN_POINT('',(8.478,40.923,4.5));
#1727=CARTESIAN_POINT('',(7.978,40.923,4.));
#1728=CARTESIAN_POINT('Origin',(-17.972,37.673,3.5));
#1729=CARTESIAN_POINT('',(-17.972,37.173,3.5));
#1730=CARTESIAN_POINT('',(-17.972,37.673,4.));
#1731=CARTESIAN_POINT('Origin',(-9.42200000000001,37.173,10.));
#1732=CARTESIAN_POINT('Origin',(39.528,42.173,0.));
#1733=CARTESIAN_POINT('',(39.028,42.173,0.5));
#1734=CARTESIAN_POINT('',(39.028,42.173,0.));
#1735=CARTESIAN_POINT('',(-39.972,42.173,0.5));
#1736=CARTESIAN_POINT('',(19.528,42.173,0.5));
#1737=CARTESIAN_POINT('',(-39.972,42.173,0.));
#1738=CARTESIAN_POINT('Origin',(-0.472000000000001,39.673,4.));
#1739=CARTESIAN_POINT('Origin',(39.028,-42.327,0.5));
#1740=CARTESIAN_POINT('',(39.028,-42.827,0.5));
#1741=CARTESIAN_POINT('',(39.528,-42.327,0.5));
#1742=CARTESIAN_POINT('Origin',(39.028,-42.327,0.5));
#1743=CARTESIAN_POINT('',(39.028,-42.327,0.));
#1744=CARTESIAN_POINT('Origin',(39.028,-42.327,0.5));
#1745=CARTESIAN_POINT('Origin',(39.028,-42.327,0.5));
#1746=CARTESIAN_POINT('Origin',(-39.972,-42.327,0.5));
#1747=CARTESIAN_POINT('',(-40.472,-42.327,0.5));
#1748=CARTESIAN_POINT('',(-39.972,-42.827,0.5));
#1749=CARTESIAN_POINT('Origin',(-39.972,-42.327,0.5));
#1750=CARTESIAN_POINT('',(-39.972,-42.327,0.));
#1751=CARTESIAN_POINT('Origin',(-39.972,-42.327,0.5));
#1752=CARTESIAN_POINT('Origin',(-39.972,-42.327,0.5));
#1753=CARTESIAN_POINT('Origin',(39.028,41.673,0.5));
#1754=CARTESIAN_POINT('',(39.528,41.673,0.5));
#1755=CARTESIAN_POINT('Origin',(39.028,41.673,0.5));
#1756=CARTESIAN_POINT('',(39.028,41.673,0.));
#1757=CARTESIAN_POINT('Origin',(39.028,41.673,0.5));
#1758=CARTESIAN_POINT('Origin',(39.028,41.673,0.5));
#1759=CARTESIAN_POINT('Origin',(39.028,-21.577,0.5));
#1760=CARTESIAN_POINT('',(39.028,-21.577,0.));
#1761=CARTESIAN_POINT('',(39.528,-21.577,0.5));
#1762=CARTESIAN_POINT('Origin',(-39.972,41.673,0.5));
#1763=CARTESIAN_POINT('',(-40.472,41.673,0.5));
#1764=CARTESIAN_POINT('Origin',(-39.972,41.673,0.5));
#1765=CARTESIAN_POINT('',(-39.972,41.673,0.));
#1766=CARTESIAN_POINT('Origin',(-39.972,41.673,0.5));
#1767=CARTESIAN_POINT('Origin',(-39.972,41.673,0.5));
#1768=CARTESIAN_POINT('Origin',(19.528,41.673,0.5));
#1769=CARTESIAN_POINT('',(19.528,41.673,0.));
#1770=CARTESIAN_POINT('Origin',(-39.972,20.923,0.5));
#1771=CARTESIAN_POINT('',(-39.972,20.923,0.));
#1772=CARTESIAN_POINT('',(-40.472,20.923,0.5));
#1773=CARTESIAN_POINT('Origin',(-39.972,41.673,0.));
#1774=CARTESIAN_POINT('',(-40.472,41.673,0.));
#1775=CARTESIAN_POINT('Origin',(39.028,41.673,0.));
#1776=CARTESIAN_POINT('',(39.528,41.673,0.));
#1777=CARTESIAN_POINT('Origin',(-20.472,-42.327,0.5));
#1778=CARTESIAN_POINT('',(-20.472,-42.327,0.));
#1779=CARTESIAN_POINT('',(-20.472,-42.827,0.5));
#1780=CARTESIAN_POINT('Origin',(-39.972,-42.327,0.));
#1781=CARTESIAN_POINT('',(-40.472,-42.327,0.));
#1782=CARTESIAN_POINT('',(-39.972,-42.827,0.));
#1783=CARTESIAN_POINT('Origin',(39.028,-42.327,0.));
#1784=CARTESIAN_POINT('',(39.028,-42.827,0.));
#1785=CARTESIAN_POINT('',(39.528,-42.327,0.));
#1786=CARTESIAN_POINT('Origin',(-40.472,42.173,0.));
#1787=CARTESIAN_POINT('Origin',(-40.472,-42.827,0.));
#1788=CARTESIAN_POINT('Origin',(-0.472000000000001,-0.326999999999997,0.));
#1789=CARTESIAN_POINT('Origin',(8.478,42.173,10.));
#1790=CARTESIAN_POINT('Origin',(-35.472,37.173,0.));
#1791=CARTESIAN_POINT('',(34.528,37.173,0.));
#1792=CARTESIAN_POINT('Origin',(39.528,-42.827,0.));
#1793=CARTESIAN_POINT('Origin',(34.528,37.173,0.));
#1794=UNCERTAINTY_MEASURE_WITH_UNIT(LENGTH_MEASURE(0.01),#1798,
'DISTANCE_ACCURACY_VALUE',
'Maximum model space distance between geometric entities at asserted c
onnectivities');
#1795=UNCERTAINTY_MEASURE_WITH_UNIT(LENGTH_MEASURE(0.01),#1798,
'DISTANCE_ACCURACY_VALUE',
'Maximum model space distance between geometric entities at asserted c
onnectivities');
#1796=(
GEOMETRIC_REPRESENTATION_CONTEXT(3)
GLOBAL_UNCERTAINTY_ASSIGNED_CONTEXT((#1794))
GLOBAL_UNIT_ASSIGNED_CONTEXT((#1798,#1800,#1801))
REPRESENTATION_CONTEXT('','3D')
);
#1797=(
GEOMETRIC_REPRESENTATION_CONTEXT(3)
GLOBAL_UNCERTAINTY_ASSIGNED_CONTEXT((#1795))
GLOBAL_UNIT_ASSIGNED_CONTEXT((#1798,#1800,#1801))
REPRESENTATION_CONTEXT('','3D')
);
#1798=(
LENGTH_UNIT()
NAMED_UNIT(*)
SI_UNIT(.MILLI.,.METRE.)
);
#1799=(
LENGTH_UNIT()
NAMED_UNIT(*)
SI_UNIT($,.METRE.)
);
#1800=(
NAMED_UNIT(*)
PLANE_ANGLE_UNIT()
SI_UNIT($,.RADIAN.)
);
#1801=(
NAMED_UNIT(*)
SI_UNIT($,.STERADIAN.)
SOLID_ANGLE_UNIT()
);
#1802=SHAPE_DEFINITION_REPRESENTATION(#1803,#1804);
#1803=PRODUCT_DEFINITION_SHAPE('',$,#1806);
#1804=SHAPE_REPRESENTATION('',(#1019),#1796);
#1805=PRODUCT_DEFINITION_CONTEXT('part definition',#1810,'design');
#1806=PRODUCT_DEFINITION('2026-02-05-14-25-44-150','Hackpad v16',#1807,
#1805);
#1807=PRODUCT_DEFINITION_FORMATION('',$,#1812);
#1808=PRODUCT_RELATED_PRODUCT_CATEGORY('Hackpad v16','Hackpad v16',(#1812));
#1809=APPLICATION_PROTOCOL_DEFINITION('international standard',
'automotive_design',2009,#1810);
#1810=APPLICATION_CONTEXT(
'Core Data for Automotive Mechanical Design Process');
#1811=PRODUCT_CONTEXT('part definition',#1810,'mechanical');
#1812=PRODUCT('2026-02-05-14-25-44-150','Hackpad v16',$,(#1811));
#1813=PRESENTATION_STYLE_ASSIGNMENT((#1814));
#1814=SURFACE_STYLE_USAGE(.BOTH.,#1815);
#1815=SURFACE_SIDE_STYLE('',(#1816));
#1816=SURFACE_STYLE_FILL_AREA(#1817);
#1817=FILL_AREA_STYLE('Steel - Satin',(#1818));
#1818=FILL_AREA_STYLE_COLOUR('Steel - Satin',#1819);
#1819=COLOUR_RGB('Steel - Satin',0.627450980392157,0.627450980392157,0.627450980392157);
ENDSEC;
END-ISO-10303-21;
